<svg viewBox="0 0 85 80" fill="none" xmlns="http://www.w3.org/2000/svg"><path d="M1 20l-.5-.86-.5.29V20h1zm65 0h1v-.58l-.5-.29-.5.87zM33.5 76.5l-.5.86.5.3.5-.3-.5-.86zm38-29.5a1 1 0 1 0 0 2v-2zm7 2a1 1 0 1 0 0-2v2zm-7 9a1 1 0 1 0 0 2v-2zm7 2a1 1 0 1 0 0-2v2zm0 11.5a1 1 0 1 0 0-2v2zm-7-2a1 1 0 1 0 0 2v-2zM59.2 47.3a1 1 0 0 0-1.4 1.4l1.4-1.4zm1.8 3.2l-.7.7.7.71.7-.7-.7-.71zm5.2-3.8a1 1 0 0 0-1.4-1.4l1.4 1.4zm-7 22.6a1 1 0 0 0-1.4 1.4l1.4-1.4zm1.8 3.2l-.7.7.7.71.7-.7-.7-.71zm5.2-3.8a1 1 0 0 0-1.4-1.4l1.4 1.4zm-7-10.4a1 1 0 0 0-1.4 1.4l1.4-1.4zm1.8 3.2l-.7.7.7.71.7-.7-.7-.71zm5.2-3.8a1 1 0 0 0-1.4-1.4l1.4 1.4zM32.49 1.6l-.5-.87.5.86zm2.03 0l.51-.86-.5.86zM2 58.08l.5-.86-.5.86zM1.5 20.86L33 2.46 31.98.73.5 19.13l1 1.73zM65 20v12h2V20h-2zM0 20v36.35h2V20H0zm1.49 38.94l31.5 18.42L34 75.64 2.5 57.22l-1.01 1.72zM34 77.37l19-11-1-1.74-19 11 1 1.74zm0-37.5l32.5-19-1-1.73-32.5 19 1 1.72zM32.5 39v37.5h2V39h-2zM.51 20.87l16 9 .98-1.74-16-9-.98 1.74zm15.97 8.99l16.5 10 1.04-1.72-16.5-10-1.04 1.72zM34 2.46L49 11.36l1.02-1.72L35.02.74 34 2.46zm15 8.9l16.5 9.5 1-1.73L50 9.63l-1 1.74zm-31.5 18.5L50 11.37l-1-1.73-32.5 18.5 1 1.74zM66 31h-2v2h2v-2zm-2 9h8.5v-2H64v2zm8.5-9H66v2h6.5v-2zm3 6v-1.5h-2V37h2zm0-1.5V34h-2v1.5h2zm-1 1H80v-2h-5.5v2zm8.5 3V75h2V39.5h-2zM80 78H56.5v2H80v-2zm-26.5-3V39.5h-2V75h2zM61 34v1.5h2V34h-2zm0 1.5V37h2v-1.5h-2zm-4.5 1H62v-2h-5.5v2zm15 12.5h7v-2h-7v2zm0 11h7v-2h-7v2zm7 9.5h-7v2h7v-2zM57.8 48.7l2.5 2.5 1.4-1.4-2.5-2.5-1.4 1.4zm3.9 2.5l4.5-4.5-1.4-1.4-4.5 4.5 1.4 1.4zm-3.9 19.5l2.5 2.5 1.4-1.4-2.5-2.5-1.4 1.4zm3.9 2.5l4.5-4.5-1.4-1.4-4.5 4.5 1.4 1.4zm-3.9-13.5l2.5 2.5 1.4-1.4-2.5-2.5-1.4 1.4zm3.9 2.5l4.5-4.5-1.4-1.4-4.5 4.5 1.4 1.4zm-8.2-22.7a3 3 0 0 1 3-3v-2a5 5 0 0 0-5 5h2zm3 38.5a3 3 0 0 1-3-3h-2a5 5 0 0 0 5 5v-2zM83 75a3 3 0 0 1-3 3v2a5 5 0 0 0 5-5h-2zM72.5 33a1 1 0 0 1 1 1h2a3 3 0 0 0-3-3v2zM32.99 2.46a1 1 0 0 1 1.01 0L35.02.74a3 3 0 0 0-3.04 0l1 1.72zM72.5 40a3 3 0 0 0 3-3h-2a1 1 0 0 1-1 1v2zM64 31a3 3 0 0 0-3 3h2a1 1 0 0 1 1-1v-2zm16 5.5a3 3 0 0 1 3 3h2a5 5 0 0 0-5-5v2zM0 56.35a3 3 0 0 0 1.49 2.6l1-1.73a1 1 0 0 1-.49-.87H0zM64 38a1 1 0 0 1-1-1h-2a3 3 0 0 0 3 3v-2z" fill="#0BA14B"/></svg>
