<svg viewBox="0 0 80 75" fill="none" xmlns="http://www.w3.org/2000/svg"><rect x="44" y="21" width="18" height="18" rx="1" stroke="#0BA14B" stroke-width="2"/><rect x="22.87" y="15.41" width="10.54" height="10.54" rx="1" transform="rotate(45 22.87 15.41)" stroke="#0BA14B" stroke-width="2"/><path d="M22.02 8.12a1 1 0 0 1 1.42 0l9.46 9.46a1 1 0 0 1-.21 1.58l-9.46 5.4a1 1 0 0 1-1 0l-9.46-5.4a1 1 0 0 1-.2-1.58l9.45-9.46z" stroke="#0BA14B" stroke-width="2"/><rect x="52" y="11" width="18" height="18" rx="9" stroke="#0BA14B" stroke-width="2"/><path d="M12 36a1 1 0 1 0 0 2v-2zm6.5 2a1 1 0 1 0 0-2v2zm5-2a1 1 0 1 0 0 2v-2zm4 2a1 1 0 1 0 0-2v2zM12 38h6.5v-2H12v2zm11.5 0h4v-2h-4v2z" fill="#0BA14B"/><rect x="1" y="1" width="78" height="54" rx="3" stroke="#0BA14B" stroke-width="2"/><rect x="1" y="-1" width="38" height="4" rx="2" transform="matrix(1 0 0 -1 20 73)" stroke="#0BA14B" stroke-width="2"/><path d="M34.69 55l-2.5 15h15.63l-2.5-15H34.68zM1 47.5h78" stroke="#0BA14B" stroke-width="2"/></svg>
