<svg viewBox="0 0 1045 518" fill="none" xmlns="http://www.w3.org/2000/svg"><path d="M339 0a2 2 0 1 0 0 4V0zm443 517.5a2 2 0 1 0 0-4v4zM0 387a2 2 0 1 0 4 0H0zM339 4h4.96V0H339v4zm14.88 0h9.92V0h-9.92v4zm19.83 0h9.92V0h-9.92v4zm19.84 0h9.92V0h-9.92v4zm19.84 0h9.91V0h-9.91v4zm19.83 0h9.92V0h-9.92v4zm19.84 0h9.92V0h-9.92v4zm19.83 0h9.92V0h-9.92v4zm19.84 0h9.92V0h-9.92v4zm19.84 0h9.91V0h-9.91v4zm19.83 0h9.92V0h-9.92v4zm19.84 0h9.92V0h-9.92v4zm19.84 0h9.91V0h-9.91v4zm19.83 0h9.92V0h-9.92v4zm19.84 0h9.92V0h-9.92v4zm19.83 0h9.92V0h-9.92v4zm19.84 0h9.92V0h-9.92v4zm19.84 0h9.91V0h-9.91v4zm19.83 0h9.92V0h-9.92v4zm19.84 0h9.92V0h-9.92v4zm19.84 0h9.91V0h-9.91v4zm19.83 0h9.92V0h-9.92v4zm19.84 0h9.91V0h-9.91v4zm19.83 0h9.92V0h-9.92v4zm19.84 0h9.92V0h-9.92v4zm19.84 0h9.91V0h-9.91v4zm19.83 0h9.92V0h-9.92v4zm19.84 0h9.92V0h-9.92v4zm19.83 0h9.92V0h-9.92v4zm19.84 0h4.96V0h-4.96v4zm4.96 0c1.66 0 3.32.03 4.97.1l.15-4c-1.7-.07-3.4-.1-5.12-.1v4zm14.85.86c3.3.4 6.57.9 9.8 1.54l.77-3.92c-3.33-.66-6.7-1.19-10.1-1.59l-.47 3.97zm19.43 3.85c3.2.9 6.34 1.92 9.43 3.06l1.38-3.75a129.18 129.18 0 0 0-9.72-3.16l-1.09 3.85zm18.59 6.86c3 1.39 5.95 2.9 8.83 4.5l1.95-3.48c-2.96-1.67-6-3.22-9.1-4.65l-1.68 3.63zm17.27 9.7c2.76 1.84 5.43 3.78 8.02 5.83l2.48-3.14a130.59 130.59 0 0 0-8.27-6.02l-2.23 3.32zm15.56 12.27c2.43 2.25 4.76 4.58 7.01 7.01l2.94-2.71c-2.32-2.5-4.73-4.92-7.24-7.24l-2.71 2.94zm13.45 14.55c2.05 2.59 3.99 5.26 5.84 8.01l3.32-2.22c-1.9-2.84-3.91-5.6-6.02-8.27l-3.14 2.48zm11.02 16.46c1.62 2.88 3.12 5.82 4.51 8.83l3.63-1.68c-1.43-3.1-2.98-6.14-4.65-9.1l-3.49 1.95zm8.31 18c1.14 3.08 2.16 6.22 3.06 9.42l3.85-1.09a128.1 128.1 0 0 0-3.16-9.72l-3.75 1.38zm5.37 19.06a131 131 0 0 1 1.54 9.79l3.97-.47c-.4-3.4-.93-6.77-1.59-10.1l-3.92.78zm2.3 19.67c.07 1.65.1 3.3.1 4.97h4c0-1.71-.03-3.42-.1-5.12l-4 .16zm.1 4.97c0 1.66-.03 3.32-.1 4.97l4 .15c.07-1.7.1-3.4.1-5.12h-4zm-.86 14.85a131 131 0 0 1-1.54 9.8l3.92.77c.66-3.33 1.19-6.7 1.59-10.1l-3.97-.47zm-3.85 19.44c-.9 3.19-1.92 6.33-3.06 9.42l3.75 1.38c1.18-3.18 2.23-6.43 3.16-9.72l-3.85-1.09zm-6.86 18.58c-1.39 3-2.89 5.95-4.51 8.83l3.49 1.96c1.67-2.97 3.22-6.01 4.65-9.12l-3.63-1.67zm-9.69 17.28a128.5 128.5 0 0 1-5.84 8.01l3.14 2.48c2.11-2.67 4.12-5.43 6.02-8.27l-3.32-2.22zm-12.28 15.55a126.69 126.69 0 0 1-7.01 7l2.71 2.95c2.51-2.32 4.92-4.73 7.24-7.24l-2.94-2.71zm-14.55 13.45c-2.59 2.05-5.26 4-8.01 5.84l2.22 3.32c2.84-1.9 5.6-3.9 8.27-6.02l-2.48-3.14zm-16.46 11.02a125.39 125.39 0 0 1-8.83 4.51l1.67 3.63c3.11-1.43 6.15-2.98 9.12-4.65l-1.96-3.49zm-18 8.3a125.6 125.6 0 0 1-9.42 3.07l1.09 3.85c3.3-.93 6.54-1.98 9.72-3.16l-1.38-3.75zm-19.06 5.38c-3.22.63-6.49 1.15-9.79 1.54l.47 3.97c3.4-.4 6.77-.93 10.1-1.59l-.78-3.92zm-19.67 2.3c-1.65.07-3.3.1-4.97.1v4c1.71 0 3.42-.03 5.12-.1l-.15-4zm-4.97.1h-5.02v4h5.02v-4zm-15.07 0h-10.05v4h10.05v-4zm-20.1 0h-10.05v4h10.05v-4zm-20.1 0h-10.04v4h10.05v-4zm-20.1 0h-10.04v4h10.05v-4zm-20.09 0h-10.04v4h10.04v-4zm-20.1 0h-10.04v4h10.05v-4zm-20.09 0h-10.05v4h10.05v-4zm-20.1 0h-10.04v4h10.04v-4zm-20.1 0h-10.04v4h10.05v-4zm-20.09 0h-10.05v4h10.05v-4zm-20.1 0h-10.04v4h10.05v-4zm-20.09 0h-10.05v4h10.05v-4zm-20.1 0h-10.04v4h10.04v-4zm-20.1 0h-10.04v4h10.05v-4zm-20.09 0h-10.05v4h10.05v-4zm-20.1 0H587.7v4h10.05v-4zm-20.1 0H567.6v4h10.05v-4zm-20.09 0H547.5v4h10.04v-4zm-20.1 0H527.4v4h10.05v-4zm-20.09 0H507.3v4h10.05v-4zm-20.1 0h-10.04v4h10.05v-4zm-20.1 0h-10.04v4h10.05v-4zm-20.09 0h-10.05v4h10.05v-4zm-20.1 0h-10.04v4h10.05v-4zm-20.09 0h-10.05v4h10.05v-4zm-20.1 0h-10.04v4h10.04v-4zm-20.1 0h-10.04v4h10.05v-4zm-20.09 0h-10.05v4h10.05v-4zm-20.1 0h-10.04v4h10.05v-4zm-20.09 0h-10.05v4h10.05v-4zm-20.1 0h-10.05v4h10.05v-4zm-20.1 0h-10.04v4h10.05v-4zm-20.09 0h-10.05v4h10.05v-4zm-20.1 0h-10.04v4H236v-4zm-20.1 0h-10.04v4h10.05v-4zm-20.09 0h-10.05v4h10.05v-4zm-20.1 0h-10.04v4h10.05v-4zm-20.09 0h-10.05v4h10.05v-4zm-20.1 0h-5.02v4h5.02v-4zm-5.02 0c-1.72 0-3.43.03-5.13.1l.16 4c1.64-.07 3.3-.1 4.97-.1v-4zm-15.35.9c-3.41.4-6.79.93-10.12 1.58l.78 3.93a126 126 0 0 1 9.81-1.54l-.47-3.98zm-20.09 3.97c-3.3.93-6.55 1.99-9.74 3.16l1.38 3.76a125.6 125.6 0 0 1 9.45-3.07l-1.09-3.85zm-19.21 7.09c-3.11 1.44-6.15 3-9.13 4.66l1.96 3.49c2.88-1.62 5.83-3.13 8.85-4.52l-1.68-3.63zm-17.86 10.02c-2.84 1.9-5.6 3.92-8.29 6.03l2.48 3.14c2.6-2.05 5.28-4 8.04-5.84l-2.23-3.33zm-16.07 12.69c-2.51 2.32-4.93 4.74-7.25 7.25l2.94 2.71a127.2 127.2 0 0 1 7.02-7.02l-2.71-2.94zm-13.9 15.03a130.91 130.91 0 0 0-6.04 8.3l3.33 2.22c1.84-2.76 3.8-5.44 5.84-8.04l-3.14-2.48zm-11.4 17.02a129.86 129.86 0 0 0-4.66 9.13l3.63 1.68c1.4-3.02 2.9-5.97 4.52-8.85l-3.49-1.96zm-8.59 18.6c-1.17 3.2-2.23 6.44-3.16 9.74l3.85 1.09c.9-3.2 1.92-6.35 3.07-9.45l-3.76-1.38zm-5.55 19.71c-.65 3.33-1.19 6.7-1.59 10.12l3.98.47c.38-3.31.9-6.58 1.54-9.81l-3.93-.78zM.1 381.87c-.07 1.7-.1 3.41-.1 5.13h4c0-1.67.03-3.32.1-4.98l-4-.15zM0 387c0 1.72.03 3.43.1 5.13l4-.15c-.07-1.66-.1-3.31-.1-4.98H0zm.9 15.35c.4 3.41.93 6.79 1.58 10.12l3.93-.78a126.2 126.2 0 0 1-1.54-9.81l-3.98.47zm3.97 20.09c.93 3.3 1.99 6.55 3.16 9.74l3.76-1.38c-1.15-3.1-2.17-6.25-3.07-9.45l-3.85 1.09zm7.09 19.21c1.44 3.11 3 6.16 4.66 9.13l3.49-1.96a125.99 125.99 0 0 1-4.52-8.85l-3.63 1.68zm10.02 17.86c1.9 2.84 3.92 5.6 6.03 8.29l3.14-2.48c-2.05-2.6-4-5.28-5.84-8.04l-3.33 2.23zm12.69 16.07c2.32 2.51 4.74 4.93 7.25 7.25l2.71-2.94a127.2 127.2 0 0 1-7.02-7.02l-2.94 2.71zm15.03 13.9c2.68 2.12 5.45 4.13 8.3 6.04l2.22-3.33c-2.76-1.84-5.44-3.8-8.04-5.84l-2.48 3.14zm17.02 11.4c2.98 1.67 6.02 3.22 9.13 4.66l1.68-3.63c-3.02-1.4-5.97-2.9-8.85-4.52l-1.96 3.49zm18.6 8.59a129.9 129.9 0 0 0 9.74 3.16l1.09-3.85c-3.2-.9-6.35-1.92-9.45-3.07l-1.38 3.76zm19.71 5.55c3.33.65 6.7 1.19 10.12 1.59l.47-3.98a126 126 0 0 1-9.81-1.54l-.78 3.93zm20.34 2.38c1.7.07 3.41.1 5.13.1v-4c-1.67 0-3.33-.03-4.97-.1l-.16 4zm5.13.1h4.94v-4h-4.94v4zm14.8 0h9.88v-4h-9.87v4zm19.75 0h9.87v-4h-9.87v4zm19.74 0h9.87v-4h-9.87v4zm19.74 0h9.88v-4h-9.88v4zm19.75 0h9.87v-4h-9.87v4zm19.74 0h9.87v-4h-9.87v4zm19.74 0h9.87v-4h-9.87v4zm19.74 0h9.88v-4h-9.88v4zm19.75 0h9.87v-4h-9.87v4zm19.74 0h9.87v-4h-9.87v4zm19.74 0h9.87v-4h-9.87v4zm19.74 0h9.88v-4h-9.88v4zm19.75 0h9.87v-4h-9.87v4zm19.74 0h9.87v-4h-9.87v4zm19.74 0h9.87v-4h-9.87v4zm19.74 0h9.87v-4h-9.87v4zm19.75 0h9.87v-4h-9.87v4zm19.74 0h9.87v-4h-9.87v4zm19.74 0h9.87v-4h-9.87v4zm19.74 0h9.87v-4h-9.87v4zm19.75 0h9.87v-4h-9.88v4zm19.74 0h9.87v-4h-9.87v4zm19.74 0h9.87v-4h-9.87v4zm19.74 0h9.87v-4h-9.87v4zm19.75 0H629v-4h-9.88v4zm19.74 0h9.87v-4h-9.87v4zm19.74 0h9.87v-4h-9.87v4zm19.74 0h9.87v-4h-9.87v4zm19.75 0h9.87v-4h-9.88v4zm19.74 0h9.87v-4h-9.87v4zm19.74 0h9.87v-4h-9.87v4zm19.74 0h9.87v-4h-9.87v4zm19.75 0H782v-4h-4.93v4z" fill="#E0E0E0"/></svg>