<svg viewBox="0 0 89 81" fill="none" xmlns="http://www.w3.org/2000/svg"><path d="M3.05 53.15a1 1 0 0 0 .65 1.9l-.65-1.9zm21.3-6.18l.12-.99-.23-.03-.22.08.32.94zm9.46 12.06a1 1 0 1 0 .06 2l-.06-2zM3.7 55.04l20.96-7.12-.64-1.9-20.97 7.13.65 1.9zm20.51-7.07l35.58 4.62.26-1.98-35.58-4.63-.26 1.99zM59.5 58.33l-25.69.7.06 2 25.68-.7-.05-2zm2.76-2.4a2.88 2.88 0 0 1-2.76 2.4l.05 2a4.88 4.88 0 0 0 4.68-4.08l-1.97-.33zm-2.47-3.34a2.88 2.88 0 0 1 2.47 3.33l1.97.33a4.88 4.88 0 0 0-4.18-5.64l-.26 1.98z" fill="#0BA14B"/><path d="M1 74.67l10.8-5.23a4 4 0 0 1 3-.2l30.28 10.1a10 10 0 0 0 9.17-1.5l31.33-23.57a3.9 3.9 0 0 0-4.4-6.41L54.3 64.64a3 3 0 0 1-3 .1l-9.55-5.11" stroke="#0BA14B" stroke-width="2"/><path d="M58.76 51.33l11.56-4.57a6 6 0 0 1 6.24 1.15l1.59 1.44" stroke="#0BA14B" stroke-width="2"/><path d="M14.4 14.78a1 1 0 1 0-.68 1.88l.67-1.88zm46.95 3.1a1 1 0 1 0-.43-1.95l.43 1.95zm-47.63-1.22c6.76 2.43 25.6 6.01 47.63 1.22l-.43-1.95c-21.64 4.7-40.1 1.16-46.53-1.15l-.67 1.88z" fill="#0BA14B"/><path d="M52.21 11.17a1 1 0 1 0-.35-1.97l.35 1.97zM40.6 19.85a28.17 28.17 0 0 1 4.64-4.99c2.1-1.78 4.54-3.26 6.98-3.7l-.35-1.96c-2.94.51-5.7 2.26-7.93 4.13a30.16 30.16 0 0 0-4.98 5.38l1.64 1.14zM49.7 28.59a1 1 0 1 0-.07-2l.07 2zm27.26-19.6l.97.26.3-1.15-1.18-.1-.09 1zM42.15 37.88l.1.99-.1-1zM22.76 17.7l-1-.1 1 .1zM38.19 1.08l-.06-1 .06 1zm23.34 5.14l.4-.92-.4.92zM33.33 19.7c1.45 3.2 6.71 9.23 16.37 8.9l-.07-2c-8.7.3-13.3-5.12-14.49-7.72l-1.82.82zM76 8.74c-2.31 8.72-12.4 26.05-33.95 28.14l.2 1.99c22.66-2.2 33.24-20.41 35.68-29.62L76 8.74zM42.05 36.88c-5.7.55-10.45-2.29-13.72-6.31-3.29-4.05-4.94-9.14-4.57-12.77l-2-.2c-.42 4.28 1.48 9.87 5.02 14.23 3.56 4.38 8.9 7.68 15.46 7.04l-.19-1.99zM23.75 17.8c.26-2.5 1.3-6.33 3.59-9.58a13.85 13.85 0 0 1 10.9-6.14l-.1-2c-5.9.34-9.9 3.38-12.44 7a23.21 23.21 0 0 0-3.93 10.52l1.99.2zm14.5-15.72c6.78-.39 12.11.71 15.93 1.98 3.9 1.3 6 2.67 6.96 3.08l.79-1.84c-.55-.23-3.19-1.82-7.12-3.13A44.39 44.39 0 0 0 38.13.08l.12 2zm22.89 5.06C64.06 8.4 67.36 9.2 76.88 10l.17-2c-9.48-.78-12.5-1.56-15.12-2.69l-.8 1.84z" fill="#0BA14B"/></svg>
