<svg viewBox="0 0 81 82" fill="none" xmlns="http://www.w3.org/2000/svg"><path d="M47.96 35.36V5.74a4 4 0 0 0-4-4H5a4 4 0 0 0-4 4V55.7a4 4 0 0 0 4 4h34.84" stroke="#A01E25" stroke-width="2"/><path d="M29.99 5.96a1 1 0 1 0 0 2v-2zm0 2h28.98v-2H30v2z" fill="#A01E25"/><rect x="59.39" y="1" width="15.39" height="15.39" rx="1" stroke="#A01E25" stroke-width="2"/><path d="M63.03 16.23v5.22l4.06 3.48 4.05-3.48v-5.22M67.09 24.93v2.64a2 2 0 0 1-2 2h-3.54a2 2 0 0 0-2 2v3.21M9.12 22.03l15.07-8.7 15.07 8.7v16.81L24.2 48.12 9.12 38.84V22.03z" stroke="#A01E25" stroke-width="2"/><path d="M39.84 45.8l19.71-11.6 19.71 11.6v22.03L59.56 80 39.83 67.83V45.8z" stroke="#A01E25" stroke-width="2"/><path d="M40.42 45.8l19.13 11.6V80" stroke="#A01E25" stroke-width="2"/><path d="M79.26 7.96a1 1 0 1 0 0-2v2zm-4.64 0h4.64v-2h-4.64v2z" fill="#A01E25"/><circle cx="23.61" cy="6.96" r="1.16" fill="#A01E25"/><circle cx="68.83" cy="51.01" r="1.16" fill="#A01E25"/><path d="M59.55 57.4l4.06-2.9M73.46 48.7l5.22-2.9" stroke="#A01E25" stroke-width="2" stroke-linecap="round"/><path d="M9.12 22.03l15.07 8.11 14.5-8.11M24.19 30.14v17.98" stroke="#A01E25" stroke-width="2"/></svg>
