<svg viewBox="0 0 128 127" fill="none" xmlns="http://www.w3.org/2000/svg"><rect x="1.5" y="45.02" width="73" height="50.43" rx="2.5" stroke="#0BA14B" stroke-width="3"/><mask id="a" fill="#fff"><rect y="116.98" width="76" height="10.02" rx="2"/></mask><rect y="116.98" width="76" height="10.02" rx="2" stroke="#0BA14B" stroke-width="6" mask="url(#a)"/><path d="M7.34 35a2.5 2.5 0 0 1 2.5-2.5h57a2.5 2.5 0 0 1 2.5 2.5v9.53h-62V35zM1 72h74M2 63h72M2 52h72M11 51.57v10.97M19.86 51.57v10.97M28.71 51.57v10.97M37.57 51.57v10.97M46.43 51.57v10.97M55.29 51.57v10.97M64.14 51.57v10.97M5.67 95.94h7.86V118H5.67V95.94zM61.5 95.94h7.85v22.04H61.5z" stroke="#0BA14B" stroke-width="3"/><circle cx="11.66" cy="85.17" r="3.3" stroke="#0BA14B" stroke-width="3"/><circle cx="64.26" cy="85.17" r="3.3" stroke="#0BA14B" stroke-width="3"/><circle cx="49.86" cy="84.49" r="1.37" fill="#0BA14B"/><mask id="b" fill="#fff"><rect x="43" y="77.63" width="13.71" height="13.71" rx="2"/></mask><rect x="43" y="77.63" width="13.71" height="13.71" rx="2" stroke="#0BA14B" stroke-width="6" mask="url(#b)"/><path d="M86.27 28.17L107.8 1.84c.14-.17.42-.02.35.2l-6.62 19.83a.1.1 0 0 0 .1.13h19.43c.17 0 .26.2.15.33l-23 27.3c-.14.18-.41.02-.33-.19l7.56-20.8a.1.1 0 0 0-.1-.14H86.43a.2.2 0 0 1-.15-.33z" stroke="#0BA14B" stroke-width="3"/><path d="M98.66 4.47a1.5 1.5 0 0 0-.6-2.94l.6 2.94zM114 3.63a1.5 1.5 0 1 0-1.35 2.68L114 3.63zm-6.66 42.9a1.5 1.5 0 1 0 .6 2.94l-.6-2.94zM92 47.37a1.5 1.5 0 0 0 1.35-2.68L92 47.37zM81.5 25.5A21.48 21.48 0 0 1 98.66 4.47l-.6-2.94A24.48 24.48 0 0 0 78.5 25.5h3zm31.15-19.19A21.47 21.47 0 0 1 124.5 25.5h3c0-9.57-5.5-17.85-13.5-21.87l-1.35 2.68zM124.5 25.5a21.48 21.48 0 0 1-17.16 21.03l.6 2.94A24.48 24.48 0 0 0 127.5 25.5h-3zM93.35 44.69A21.47 21.47 0 0 1 81.5 25.5h-3c0 9.57 5.5 17.85 13.5 21.87l1.35-2.68z" fill="#0BA14B"/><path d="M117.5 43c8 8 11 27.16-6.5 33.5-9.67 3.5-27.5-8.5-36.5 10" stroke="#0BA14B" stroke-width="3"/></svg>
