<svg viewBox="0 0 97 97" fill="none" xmlns="http://www.w3.org/2000/svg"><path fill-rule="evenodd" clip-rule="evenodd" d="M78.61 52.16H63.5a.76.76 0 0 0-.76.75v14.37c0 .41.34.75.76.75H78.6c.42 0 .76-.34.76-.75V52.9a.76.76 0 0 0-.76-.75zM63.5 49.89a3.02 3.02 0 0 0-3.03 3.02v14.37a3.02 3.02 0 0 0 3.03 3.02H78.6a3.02 3.02 0 0 0 3.03-3.02V52.9a3.02 3.02 0 0 0-3.03-3.02H63.5z" fill="#0BA14B"/><path fill-rule="evenodd" clip-rule="evenodd" d="M79.84 53.13L63.7 69.25l-1.6-1.6 16.12-16.13 1.6 1.6z" fill="#0BA14B"/><path fill-rule="evenodd" clip-rule="evenodd" d="M78.23 69.25L62.11 53.13l1.6-1.6 16.13 16.12-1.6 1.6z" fill="#0BA14B"/><path d="M1 4.54A3.54 3.54 0 0 1 4.54 1h87.68a3.54 3.54 0 0 1 0 7.07H4.54A3.54 3.54 0 0 1 1 4.54z" stroke="#0BA14B" stroke-width="2"/><path d="M1 38.02a3 3 0 0 1 3-3h47.94a3 3 0 0 1 3 3V89.7H1V38z" fill="#F9F9F9" stroke="#0BA14B" stroke-width="2"/><path d="M6 33a3 3 0 0 1 3-3h38a3 3 0 0 1 3 3v2H6v-2zM1 89.44h53.94V92a3 3 0 0 1-3 3H4a3 3 0 0 1-3-3v-2.56z" stroke="#0BA14B" stroke-width="2"/><path d="M32 66a3 3 0 0 1 3-3h11a3 3 0 0 1 3 3v23.5H32V66z" stroke="#0BA14B" stroke-width="2"/><path d="M36.28 68.54a1 1 0 1 0 0 2v-2zm8.32 2a1 1 0 0 0 0-2v2zm-8.32 0h8.32v-2h-8.32v2zM36.28 71.57a1 1 0 1 0 0 2v-2zm8.32 2a1 1 0 0 0 0-2v2zm-8.32 0h8.32v-2h-8.32v2zM36.28 74.6a1 1 0 0 0 0 2v-2zm8.32 2a1 1 0 0 0 0-2v2zm-8.32 0h8.32v-2h-8.32v2z" fill="#0BA14B"/><path d="M8.56 45.57a3 3 0 0 1 3-3h10.9a3 3 0 0 1 3 3v11.66a3 3 0 0 1-3 3h-10.9a3 3 0 0 1-3-3V45.57zM8.7 55.94h16.62" stroke="#0BA14B" stroke-width="2"/><path d="M55.94 68.54a1 1 0 1 0 0 2v-2zm39.3 2a1 1 0 1 0 0-2v2zm-39.3 0h39.3v-2h-39.3v2zM55.94 80.64a1 1 0 1 0 0 2v-2zm39.3 2a1 1 0 1 0 0-2v2zm-39.3 0h39.3v-2h-39.3v2z" fill="#0BA14B"/><circle cx="66.52" cy="75.59" r="1.51" fill="#0BA14B"/><circle cx="88.44" cy="75.59" r="5.8" stroke="#0BA14B" stroke-width="2"/><circle cx="88.44" cy="75.59" r="1.51" fill="#0BA14B"/><path d="M63.74 84.66a2.78 2.78 0 0 1 5.56 0v7.56a2.78 2.78 0 1 1-5.56 0v-7.56zM85.66 84.78a2.78 2.78 0 0 1 5.56 0v7.56a2.78 2.78 0 0 1-5.56 0v-7.56z" stroke="#0BA14B" stroke-width="2"/><circle cx="66.52" cy="75.59" r="5.8" stroke="#0BA14B" stroke-width="2"/><rect x="63.74" y="1" width="14.25" height="12.9" rx="1" fill="#F9F9F9" stroke="#0BA14B" stroke-width="2"/><circle cx="71.04" cy="6.94" r="1.52" fill="#0BA14B"/></svg>
