<svg viewBox="0 0 130 129" fill="none" xmlns="http://www.w3.org/2000/svg"><path d="M1.8 100.63a1.5 1.5 0 0 0 0 3v-3zm125.42 3a1.5 1.5 0 1 0 0-3v3zm-125.43 0h125.42v-3H1.8v3zM1.8 125.72a1.5 1.5 0 0 0 0 3v-3zm125.42 3a1.5 1.5 0 1 0 0-3v3zm-125.43 0h125.42v-3H1.8v3z" fill="#0BA14B"/><circle cx="13.61" cy="114.39" r="12.11" stroke="#0BA14B" stroke-width="3"/><circle cx="14.11" cy="114.9" r="2.02" fill="#0BA14B"/><circle cx="65.01" cy="114.39" r="12.11" stroke="#0BA14B" stroke-width="3"/><circle cx="64.73" cy="114.9" r="2.02" fill="#0BA14B"/><circle cx="114.39" cy="114.39" r="12.11" stroke="#0BA14B" stroke-width="3"/><circle cx="114.9" cy="114.9" r="2.02" fill="#0BA14B"/><path fill-rule="evenodd" clip-rule="evenodd" d="M35.27 78.61H15.12a1 1 0 0 0-1.01 1.01v19.15a1 1 0 0 0 1 1.01h20.16a1 1 0 0 0 1.01-1V79.61a1 1 0 0 0-1-1zM15.12 75.6a4.03 4.03 0 0 0-4.03 4.03v19.15c0 2.23 1.8 4.03 4.03 4.03h20.15c2.23 0 4.04-1.8 4.04-4.03V79.62c0-2.22-1.8-4.03-4.04-4.03H15.12z" fill="#0BA14B"/><path fill-rule="evenodd" clip-rule="evenodd" d="M36.9 79.9l-21.5 21.5-2.14-2.13 21.5-21.5 2.14 2.14z" fill="#0BA14B"/><path fill-rule="evenodd" clip-rule="evenodd" d="M34.77 101.4l-21.5-21.5 2.13-2.13 21.5 21.5-2.13 2.14zM113.89 52.41H94.74a1 1 0 0 0-1 1v19.16a1 1 0 0 0 1 1h19.15a1 1 0 0 0 1-1V53.42a1 1 0 0 0-1-1.01zm-19.15-3.02a4.03 4.03 0 0 0-4.03 4.03v19.15c0 2.22 1.8 4.03 4.03 4.03h19.15c2.23 0 4.03-1.8 4.03-4.03V53.42c0-2.23-1.8-4.03-4.03-4.03H94.74z" fill="#0BA14B"/><path fill-rule="evenodd" clip-rule="evenodd" d="M115.74 53.03l-21.5 21.5-2.14-2.14 21.5-21.5 2.14 2.14z" fill="#0BA14B"/><path fill-rule="evenodd" clip-rule="evenodd" d="M113.6 74.53l-21.5-21.5 2.14-2.14 21.5 21.5-2.13 2.14z" fill="#0BA14B"/><rect x="1.5" y="1.5" width="126.01" height="13.13" rx="4.5" stroke="#0BA14B" stroke-width="3"/><mask id="a" fill="#fff"><rect x="14.34" width="21.5" height="19.71" rx="2"/></mask><rect x="14.34" width="21.5" height="19.71" rx="2" fill="#F9F9F9" stroke="#0BA14B" stroke-width="6" mask="url(#a)"/><circle cx="25.31" cy="9.18" r="2.02" fill="#0BA14B"/><mask id="b" fill="#fff"><rect x="93.17" width="21.5" height="19.71" rx="2"/></mask><rect x="93.17" width="21.5" height="19.71" rx="2" fill="#F9F9F9" stroke="#0BA14B" stroke-width="6" mask="url(#b)"/><circle cx="104.15" cy="9.18" r="2.02" fill="#0BA14B"/><path fill-rule="evenodd" clip-rule="evenodd" d="M23.57 32.25V17.92h3.03v14.33h-3.03z" fill="#0BA14B"/><path fill-rule="evenodd" clip-rule="evenodd" d="M25.08 30.34l19.46 15.04a4.54 4.54 0 0 1 1.77 3.59V66.3a1.51 1.51 0 0 1-3.03 0V48.97c0-.47-.22-.91-.59-1.2l-17.6-13.6-17.62 13.6c-.37.29-.58.73-.58 1.2V66.3a1.51 1.51 0 0 1-3.03 0V48.97c0-1.4.65-2.73 1.76-3.6l19.46-15.03zM102.41 32.25V17.92h3.03v14.33h-3.03z" fill="#0BA14B"/><path fill-rule="evenodd" clip-rule="evenodd" d="M103.92 30.34l19.46 15.04a4.54 4.54 0 0 1 1.77 3.59V66.3a1.51 1.51 0 0 1-3.03 0V48.97c0-.47-.22-.91-.59-1.2l-17.6-13.6-17.62 13.6c-.37.29-.58.73-.58 1.2V66.3a1.51 1.51 0 1 1-3.03 0V48.97c0-1.4.65-2.73 1.77-3.6l19.45-15.03z" fill="#0BA14B"/></svg>
