<svg viewBox="0 0 24 24" fill="none" xmlns="http://www.w3.org/2000/svg"><path fill-rule="evenodd" clip-rule="evenodd" d="M20 15.5c-1.25 0-2.45-.2-3.57-.57a1.02 1.02 0 0 0-1.02.24l-2.2 2.2a15.07 15.07 0 0 1-6.59-6.58l2.2-2.21a.98.98 0 0 0 .25-1.01A11.36 11.36 0 0 1 8.5 4a1 1 0 0 0-1-1H4a1 1 0 0 0-1 1 17 17 0 0 0 17 17 1 1 0 0 0 1-1v-3.5a1 1 0 0 0-1-1zM13 9h-2v2h2V9zm4 0h-2v2h2V9zM6.53 5h-1.5c.09 1.32.35 2.59.76 3.8l1.2-1.21C6.75 6.75 6.6 5.88 6.53 5zM19 18.97a14.9 14.9 0 0 1-3.8-.76l1.2-1.2c.85.24 1.72.39 2.6.45v1.51zM21 11V9h-2v2h2z" fill="#0BA14B"/></svg>
