<svg viewBox="0 0 85 80" fill="none" xmlns="http://www.w3.org/2000/svg"><path d="M1 61v16c0 1.1.9 2 2 2h8.04a2 2 0 0 0 1.56-.75l2.8-3.5a2 2 0 0 1 1.56-.75h51.08a2 2 0 0 1 1.56.75l2.8 3.5a2 2 0 0 0 1.56.75H82a2 2 0 0 0 2-2V61a4 4 0 0 0-4-4H5a4 4 0 0 0-4 4z" stroke="#0BA14B" stroke-width="2"/><path d="M69 63H16a3 3 0 1 0 0 6h53a3 3 0 1 0 0-6zM6 26v31h41.5V26a2 2 0 0 0-2-2H8a2 2 0 0 0-2 2zM19 3v21h22V3a2 2 0 0 0-2-2H21a2 2 0 0 0-2 2z" stroke="#0BA14B" stroke-width="2"/><path stroke="#0BA14B" stroke-width="2" d="M17 31h20v7H17z"/><rect x="11" y="48" width="4" height="4" rx="2" stroke="#0BA14B" stroke-width="2"/><path d="M32 45a1 1 0 1 0 0 2v-2zm8 2a1 1 0 1 0 0-2v2zm-8 0h8v-2h-8v2zM32 50a1 1 0 1 0 0 2v-2zm11 2a1 1 0 1 0 0-2v2zm-11 0h11v-2H32v2z" fill="#0BA14B"/><path d="M52 16v41h28V16a2 2 0 0 0-2-2H54a2 2 0 0 0-2 2z" stroke="#0BA14B" stroke-width="2"/><path stroke="#0BA14B" stroke-width="2" d="M58 20h16v5H58z"/><rect x="57" y="48" width="4" height="4" rx="2" stroke="#0BA14B" stroke-width="2"/><path d="M65 45a1 1 0 1 0 0 2v-2zm8 2a1 1 0 1 0 0-2v2zm-8 0h8v-2h-8v2zM65 50a1 1 0 1 0 0 2v-2zm11 2a1 1 0 1 0 0-2v2zm-11 0h11v-2H65v2z" fill="#0BA14B"/><path d="M19 6h22" stroke="#0BA14B" stroke-width="2"/><path d="M29 10a1 1 0 1 0 2 0h-2zm0-9v9h2V1h-2z" fill="#0BA14B"/></svg>
