<svg viewBox="0 0 41 40" fill="none" xmlns="http://www.w3.org/2000/svg"><path fill-rule="evenodd" clip-rule="evenodd" d="M20 6.67A6.66 6.66 0 1 0 20 20a6.66 6.66 0 0 0 0-13.33zm3.33 6.66c0-1.83-1.5-3.33-3.33-3.33a3.34 3.34 0 0 0-3.33 3.33c0 1.84 1.5 3.34 3.33 3.34s3.33-1.5 3.33-3.34zM30 30c-.33-1.18-5.5-3.33-10-3.33-4.48 0-9.62 2.13-10 3.33h20zM6.67 30c0-4.43 8.88-6.67 13.33-6.67 4.45 0 13.33 2.24 13.33 6.67v3.33H6.67V30z" fill="#000" fill-opacity=".54"/><path d="M32.54 13.6c-.1-.9-.05-1.67.13-2.3a5.69 5.69 0 0 1 1.74-2.83l1.09-.99c.35-.31.63-.63.86-.96.22-.35.34-.75.34-1.22 0-.6-.18-1.1-.52-1.46-.33-.36-.93-.54-1.8-.54-.28 0-.57.03-.88.1-.31.05-.63.14-.94.26-.31.1-.61.23-.9.39-.29.14-.54.29-.76.44L29.6 2A9.5 9.5 0 0 1 31.86.89c.87-.3 1.9-.44 3.12-.44 1.63 0 2.9.4 3.82 1.2a3.94 3.94 0 0 1 1.38 3.16 5.37 5.37 0 0 1-2.37 4.76c-.41.31-.8.65-1.14 1.02a3.89 3.89 0 0 0-1.25 3.02h-2.88zm-.52 3.68c0-.6.19-1.08.57-1.43a2.1 2.1 0 0 1 1.5-.54c.66 0 1.18.18 1.57.54.38.35.57.83.57 1.43 0 .61-.2 1.1-.57 1.46-.39.36-.9.55-1.56.55a2.1 2.1 0 0 1-1.51-.55 1.92 1.92 0 0 1-.57-1.46z" fill="#6F6F6F"/></svg>