<svg viewBox="0 0 85 81" fill="none" xmlns="http://www.w3.org/2000/svg"><path d="M1 20.5l-.5-.86-.5.29v.57h1zm65 0h1v-.58l-.5-.29-.5.87zM33.5 77l-.5.86.5.3.5-.3-.5-.86zm38-29.5a1 1 0 1 0 0 2v-2zm7 2a1 1 0 1 0 0-2v2zm-7 9a1 1 0 1 0 0 2v-2zm7 2a1 1 0 1 0 0-2v2zm0 11.5a1 1 0 1 0 0-2v2zm-7-2a1 1 0 1 0 0 2v-2zM59.2 47.8a1 1 0 0 0-1.4 1.4l1.4-1.4zM61 51l-.7.7.7.71.7-.7L61 51zm5.2-3.8a1 1 0 0 0-1.4-1.4l1.4 1.4zm-7 22.6a1 1 0 0 0-1.4 1.4l1.4-1.4zM61 73l-.7.7.7.71.7-.7L61 73zm5.2-3.8a1 1 0 0 0-1.4-1.4l1.4 1.4zm-7-10.4a1 1 0 0 0-1.4 1.4l1.4-1.4zM61 62l-.7.7.7.71.7-.7L61 62zm5.2-3.8a1 1 0 0 0-1.4-1.4l1.4 1.4zM32.49 2.1l-.5-.87.5.86zm2.03 0l.51-.86-.5.86zM2 58.58l.5-.86-.5.86zM1.5 21.36L33 2.96l-1.01-1.73L.5 19.63l1 1.73zM65 20.5v12h2v-12h-2zm-65 0v36.35h2V20.5H0zm1.49 38.94l31.5 18.42L34 76.14 2.5 57.72l-1.01 1.72zM34 77.87l19-11-1-1.74-19 11 1 1.74zm0-37.5l32.5-19-1-1.73-32.5 19 1 1.72zm-1.5-.87V77h2V39.5h-2zM.51 21.37l16 9 .98-1.74-16-9-.98 1.74zm15.97 8.99l16.5 10 1.04-1.72-16.5-10-1.04 1.72zM34 2.96L49 11.86l1.02-1.72-14.99-8.9L34 2.96zm15 8.9l16.5 9.5 1-1.73-16.5-9.5-1 1.74zm-31.5 18.5L50 11.87l-1-1.73-32.5 18.5 1 1.74zM66 31.5h-2v2h2v-2zm-2 9h8.5v-2H64v2zm8.5-9H66v2h6.5v-2zm3 6V36h-2v1.5h2zm0-1.5v-1.5h-2V36h2zm-1 1H80v-2h-5.5v2zm8.5 3v35.5h2V40h-2zm-3 38.5H56.5v2H80v-2zm-26.5-3V40h-2v35.5h2zm7.5-41V36h2v-1.5h-2zm0 1.5v1.5h2V36h-2zm-4.5 1H62v-2h-5.5v2zm15 12.5h7v-2h-7v2zm0 11h7v-2h-7v2zm7 9.5h-7v2h7v-2zM57.8 49.2l2.5 2.5 1.4-1.4-2.5-2.5-1.4 1.4zm3.9 2.5l4.5-4.5-1.4-1.4-4.5 4.5 1.4 1.4zm-3.9 19.5l2.5 2.5 1.4-1.4-2.5-2.5-1.4 1.4zm3.9 2.5l4.5-4.5-1.4-1.4-4.5 4.5 1.4 1.4zm-3.9-13.5l2.5 2.5 1.4-1.4-2.5-2.5-1.4 1.4zm3.9 2.5l4.5-4.5-1.4-1.4-4.5 4.5 1.4 1.4zM53.5 40a3 3 0 0 1 3-3v-2a5 5 0 0 0-5 5h2zm3 38.5a3 3 0 0 1-3-3h-2a5 5 0 0 0 5 5v-2zm26.5-3a3 3 0 0 1-3 3v2a5 5 0 0 0 5-5h-2zm-10.5-42a1 1 0 0 1 1 1h2a3 3 0 0 0-3-3v2zM32.99 2.96a1 1 0 0 1 1.01 0l1.02-1.72a3 3 0 0 0-3.04 0l1 1.72zM72.5 40.5a3 3 0 0 0 3-3h-2a1 1 0 0 1-1 1v2zm-8.5-9a3 3 0 0 0-3 3h2a1 1 0 0 1 1-1v-2zM80 37a3 3 0 0 1 3 3h2a5 5 0 0 0-5-5v2zM0 56.85a3 3 0 0 0 1.49 2.6l1-1.73a1 1 0 0 1-.49-.87H0zM64 38.5a1 1 0 0 1-1-1h-2a3 3 0 0 0 3 3v-2z" fill="#A01E25"/></svg>
