<svg viewBox="0 0 141 104" fill="none" xmlns="http://www.w3.org/2000/svg"><path d="M5 101.5h4.5m113 0H118m-108.5 0l66.5.14-56-.06 22 .02 76-.1m-108.5 0v-58m108.5 58v-58M2 30c.33 5.17 3.6 15.5 14 15.5 13.64 0 15.48-9.73 16.76-14.63.05-.2.34-.19.38.02.8 4.91 3.18 14.61 15.86 14.61 10.2 0 13.99-9.13 14.83-14.16.04-.22.42-.24.47-.02 1.21 5.02 4.25 14.18 15.2 14.18 11.22 0 14.13-9.61 15.28-14.54.05-.22.36-.21.4 0C96.23 35.9 99.33 45.5 111 45.5c10.8 0 14.83-10.33 15.5-15.5M2 30L16.28 4.56a6 6 0 0 1 5.23-3.06h84.58a6 6 0 0 1 5.16 2.93L126.5 30M2 30h124.5M42 72.75V62a2 2 0 0 0-2-2H22a2 2 0 0 0-2 2v10.75m22 0v4.75a2 2 0 0 1-2 2H22a2 2 0 0 1-2-2v-4.75m22 0H20M52.5 66c0-.28.22-.5.5-.5h19.5v19h-20V66zM72.5 65.5h20v19h-20z" stroke="#0BA14B" stroke-width="3"/><path d="M92.5 65.5H125c.28 0 .5.22.5.5v18.5h-33v-19z" fill="#F9F9F9" stroke="#0BA14B" stroke-width="3"/><path fill="#F9F9F9" stroke="#0BA14B" stroke-width="3" d="M92.5 80.5h33v21h-33z"/><path stroke="#0BA14B" stroke-width="3" d="M52.5 84.5h14v17h-14zM125.5 84.5H139c.28 0 .5.22.5.5v16.5h-14v-17z"/><path d="M60.5 72a1.5 1.5 0 0 0 3 0h-3zm0-6.5V72h3v-6.5h-3zM81.5 72a1.5 1.5 0 0 0 3 0h-3zm0-6.5V72h3v-6.5h-3zM79.5 89.5a1.5 1.5 0 0 0 3 0h-3zm0-6.5v6.5h3V83h-3zM57.5 89.5a1.5 1.5 0 0 0 3 0h-3zm0-6.5v6.5h3V83h-3zM107.5 85.5a1.5 1.5 0 0 0 3 0h-3zm0-6.5v6.5h3V79h-3zM107.5 70.5a1.5 1.5 0 0 0 3 0h-3zm0-6.5v6.5h3V64h-3z" fill="#0BA14B"/><path stroke="#0BA14B" stroke-width="3" d="M66.5 84.5h26v17h-26z"/></svg>
