<svg viewBox="0 0 79 80" fill="none" xmlns="http://www.w3.org/2000/svg"><path d="M69 9c0 1.05-.38 2.57-1.06 4.31A40.46 40.46 0 0 1 62.47 23a9.59 9.59 0 0 1-1.41 1.44l-.2-.17c-.3-.27-.67-.7-1.11-1.26a40.92 40.92 0 0 1-2.95-4.4 42.5 42.5 0 0 1-2.68-5.3A12.65 12.65 0 0 1 53 9a8 8 0 1 1 16 0zm-8.1 15.51h.01zm.3.02l.02.01h-.02z" stroke="#0BA14B" stroke-width="2"/><circle cx="61" cy="9" r="2" stroke="#0BA14B" stroke-width="2"/><path d="M29.85 40H8.24a2 2 0 0 0-1.8 1.1L1.22 51.59a2 2 0 0 0-.21.9V75a4 4 0 0 0 4 4h29a4 4 0 0 0 4-4V52.54a2 2 0 0 0-.27-1l-6.15-10.55a2 2 0 0 0-1.73-.99zM1 52h37" stroke="#0BA14B" stroke-width="2"/><path d="M17 40l-3 12v6c0 1.1.9 2 2 2h7a2 2 0 0 0 2-2v-6l-4-12" stroke="#0BA14B" stroke-width="2"/><path d="M54 26a1 1 0 1 0 0-2v2zM43 78a1 1 0 1 0 0 2v-2zm0 2h1.56v-2H43v2zm4.69 0h3.12v-2H47.7v2zm6.25 0h1.56v-2h-1.56v2zm1.56 0c.78 0 1.55-.04 2.3-.11l-.2-2c-.68.08-1.39.11-2.1.11v2zm6.82-1a23.35 23.35 0 0 0 4.26-1.77l-.94-1.76c-1.23.66-2.54 1.2-3.9 1.61l.58 1.91zm8.09-4.33a23.64 23.64 0 0 0 3.26-3.26l-1.55-1.27c-.9 1.09-1.9 2.09-2.98 2.98l1.27 1.55zm5.82-7.09a23.35 23.35 0 0 0 1.76-4.26l-1.91-.58a21.37 21.37 0 0 1-1.61 3.9l1.76.94zm2.66-8.78c.07-.75.11-1.52.11-2.3h-2c0 .71-.03 1.42-.1 2.1l1.99.2zm.11-2.3c0-.78-.04-1.55-.11-2.3l-2 .2c.08.68.11 1.39.11 2.1h2zm-1-6.82a23.35 23.35 0 0 0-1.77-4.26l-1.76.94c.66 1.23 1.2 2.54 1.61 3.9l1.91-.58zm-4.33-8.09a23.64 23.64 0 0 0-3.26-3.26l-1.27 1.55c1.09.9 2.09 1.9 2.98 2.98l1.55-1.27zm-7.09-5.82a23.35 23.35 0 0 0-4.26-1.76l-.58 1.91c1.36.41 2.67.95 3.9 1.61l.94-1.76zm-8.78-2.66c-.75-.07-1.52-.11-2.3-.11v2c.71 0 1.42.03 2.1.1l.2-1.99zM55.5 33h-2v2h2v-2zm-6 0h-4v2h4v-2zm-8 0h-4v2h4v-2zm-8 0h-2v2h2v-2zm-2 0c-.48 0-.93-.1-1.34-.27l-.77 1.85c.65.27 1.37.42 2.11.42v-2zm-3.23-2.16A3.49 3.49 0 0 1 28 29.5h-2c0 .74.15 1.46.42 2.1l1.85-.76zM28 29.5c0-.48.1-.93.27-1.34l-1.85-.77A5.49 5.49 0 0 0 26 29.5h2zm2.16-3.23c.41-.18.86-.27 1.34-.27v-2c-.74 0-1.46.15-2.1.42l.76 1.85zM31.5 26h1.88v-2H31.5v2zm5.63 0h3.74v-2h-3.74v2zm7.5 0h3.74v-2h-3.74v2zm7.5 0H54v-2h-1.88v2z" fill="#0BA14B"/></svg>
