<svg viewBox="0 0 77 80" fill="none" xmlns="http://www.w3.org/2000/svg"><path d="M75 43.5a1 1 0 1 0 2 0h-2zm2 5a1 1 0 1 0-2 0h2zM59.51 67.13a1 1 0 0 0 .98 1.74l-.98-1.74zm-3.03 3.75a1 1 0 0 0-.96-1.76l.96 1.76zm-34-1.26a1 1 0 0 0-.96 1.76l.96-1.76zm-4.97-.25a1 1 0 1 0 .98-1.74l-.98 1.74zm22.9 9.1l-.47-.89.47.88zm-3.82-.01l-.48.88.48-.88zm37.33-58.1l-.48.88.48-.88zM36.58 2.05l-.48-.88.48.88zM3.05 60.15l-.49.87.49-.88zm.03-39.79l-.48-.88.48.88zm.48.88l33.5-18.31-.96-1.76L2.6 19.48l.96 1.76zM39.94 2.93l33.5 18.31.96-1.76-33.5-18.3-.96 1.75zM75 23.87V43.5h2V23.87h-2zm0 24.63v8.16h2V48.5h-2zm-1.53 10.78l-13.96 7.85.98 1.74 13.96-7.85-.98-1.74zm-17.95 9.84l-15.58 8.46.95 1.76 15.59-8.46-.96-1.76zm-18.45 8.46l-14.6-7.96-.95 1.76 14.59 7.96.96-1.76zm-18.58-9.95L3.54 59.27l-.98 1.75 14.95 8.35.98-1.74zM2 56.65V23.87H0v32.78h2zm37.94 20.93a3 3 0 0 1-2.87 0l-.96 1.76a5 5 0 0 0 4.78 0l-.95-1.76zm33.5-56.34A3 3 0 0 1 75 23.87h2a5 5 0 0 0-2.6-4.39l-.96 1.76zM37.06 2.93a3 3 0 0 1 2.88 0l.96-1.76a5 5 0 0 0-4.8 0l.96 1.76zM75 56.66a3 3 0 0 1-1.53 2.62l.98 1.74A5 5 0 0 0 77 56.66h-2zM3.54 59.27A3 3 0 0 1 2 56.65H0a5 5 0 0 0 2.56 4.37l.98-1.75zM2.6 19.48a5 5 0 0 0-2.6 4.4h2a3 3 0 0 1 1.56-2.64l-.96-1.76z" fill="#A01E25"/><path d="M38.5 16.5L15 29.5V53l23.5 13L62 53V29.5l-23.5-13zM15 53L1.5 59M62 52.5L76 59M38.5 16.5V1" stroke="#A01E25" stroke-width="2"/><path d="M1 21.5l37.5 21 37.5-21M38.5 42.5v37" stroke="#A01E25" stroke-width="2"/></svg>
