<svg viewBox="0 0 128 128" fill="none" xmlns="http://www.w3.org/2000/svg"><rect x="1.5" y="1.5" width="125" height="11.22" rx="5.61" stroke="#A01E25" stroke-width="3"/><path d="M23.5 82c0-.28.22-.5.5-.5h102c.28 0 .5.22.5.5v18.5H24a.5.5 0 0 1-.5-.5V82zM5.5 31.5a9 9 0 1 1 18 0v69H6a.5.5 0 0 1-.5-.5V31.5zM1.5 101c0-.28.22-.5.5-.5h124.5V124a2.5 2.5 0 0 1-2.5 2.5H4a2.5 2.5 0 0 1-2.5-2.5v-23zM28.44 99.56v26.66" stroke="#A01E25" stroke-width="3"/><circle cx="15.11" cy="112.89" r="4.72" stroke="#A01E25" stroke-width="3"/><circle cx="92.44" cy="108.44" r="1.78" fill="#A01E25"/><circle cx="33.78" cy="90.67" r="1.78" fill="#A01E25"/><circle cx="49.78" cy="90.67" r="1.78" fill="#A01E25"/><circle cx="65.78" cy="90.67" r="1.78" fill="#A01E25"/><circle cx="81.78" cy="90.67" r="1.78" fill="#A01E25"/><circle cx="97.78" cy="90.67" r="1.78" fill="#A01E25"/><circle cx="113.78" cy="90.67" r="1.78" fill="#A01E25"/><path d="M99.56 106.94a1.5 1.5 0 0 0 0 3v-3zm0 3h26.66v-3H99.56v3z" fill="#A01E25"/><circle cx="14.5" cy="31.5" r="9" stroke="#A01E25" stroke-width="3"/><circle cx="14.44" cy="32.22" r="2" fill="#A01E25"/><circle cx="106.67" cy="22.67" r="9.17" stroke="#A01E25" stroke-width="3"/><path d="M65.5 8.89a1.5 1.5 0 0 0-3 0h3zm-3 0v19.55h3V8.9h-3z" fill="#A01E25"/><path d="M101.33 29.44v18.9a5 5 0 0 0 5 5h.67a5 5 0 0 0 5-5v-18.9" stroke="#A01E25" stroke-width="3"/><path d="M101.16 46.22L87.09 60.3a5 5 0 0 0 0 7.07l.4.4a5 5 0 0 0 7.14-.06l14.7-15.26" stroke="#A01E25" stroke-width="3"/><path d="M80.72 71.83a1.5 1.5 0 1 0 2.12 2.12l-2.12-2.12zm2.12 2.12l5.33-5.33-2.12-2.13-5.33 5.34 2.12 2.12z" fill="#A01E25"/><path d="M21.33 25.67L50.67 55.1v10.67h-9.78L23.1 48.88" stroke="#A01E25" stroke-width="3"/><path d="M55.83 73.06a1.5 1.5 0 0 0 2.12-2.12l-2.12 2.12zm-6.22-6.22l6.22 6.22 2.12-2.12-6.22-6.22-2.12 2.12z" fill="#A01E25"/><circle cx="107" cy="23" r="2" fill="#A01E25"/><path d="M59.38 44.62a1.5 1.5 0 1 0 2.12-2.13l-2.12 2.13zM56.88 40h-1.5v.62l.45.44L56.89 40zm0-6.22l-1.05-1.06-.44.44v.62h1.5zM64 26.67l1.06-1.06L64 24.55l-1.06 1.06L64 26.67zm7.11 7.1h1.5v-.61l-.44-.44-1.06 1.06zm0 6.23l1.06 1.06.44-.44V40h-1.5zm-4.62 2.5a1.5 1.5 0 1 0 2.13 2.12l-2.13-2.13zm-4.99 0l-3.55-3.56-2.12 2.12 3.55 3.56 2.12-2.13zM58.4 40v-6.22h-3V40h3zm-.44-5.16l7.11-7.11-2.12-2.12-7.11 7.1 2.12 2.13zm4.99-7.11l7.11 7.1 2.12-2.11-7.11-7.11-2.12 2.12zm6.67 6.05V40h3v-6.22h-3zm.44 5.16l-3.56 3.55 2.13 2.13 3.55-3.56-2.12-2.12z" fill="#A01E25"/></svg>