<svg viewBox="0 0 81 82" fill="none" xmlns="http://www.w3.org/2000/svg"><path d="M20.5 47a1 1 0 1 0 0 2v-2zm34 2a1 1 0 1 0 0-2v2zM74 18.5h1v-1h-1v1zM20.5 49h34v-2h-34v2zM9 19.5h39.5v-2H9v2zm53 0h12v-2H62v2zm11-1v27h2v-27h-2zM47.5 71H11v2h36.5v-2zM2 62V12.7H0V62h2zM8 6.3V56h2V6.3H8zm.2.2a.2.2 0 0 1-.2-.2h2c0-1-.8-1.8-1.8-1.8v2zM2 12.7a6.2 6.2 0 0 1 6.2-6.2v-2A8.2 8.2 0 0 0 0 12.7h2zM11 71a9 9 0 0 1-9-9H0a11 11 0 0 0 11 11v-2z" fill="#A01E25"/><path d="M30.5 36l6.5 7M57 10l6.5 7M61 6l6.5 7M79.16 40.84L39.84 80.16a.2.2 0 0 0 .14.34H78.5a1 1 0 0 0 1-1V40.98a.2.2 0 0 0-.34-.14z" stroke="#A01E25" stroke-width="2"/><path d="M70.66 59.34L58.34 71.66a.2.2 0 0 0 .14.34H70a1 1 0 0 0 1-1V59.48a.2.2 0 0 0-.34-.14z" stroke="#A01E25" stroke-width="2"/><path d="M76 53.5a1 1 0 1 0 0 2v-2zm3.5 0H76v2h3.5v-2zM76 60a1 1 0 1 0 0 2v-2zm3.5 0H76v2h3.5v-2zM76 66.5a1 1 0 1 0 0 2v-2zm3.5 0H76v2h3.5v-2zM76 73a1 1 0 1 0 0 2v-2zm3.5 0H76v2h3.5v-2z" fill="#A01E25"/><path d="M1 63c0-3 2.5-8 8-8M30 36.5l-3.85 11.08a.2.2 0 0 0 .26.25L37 43.5 71.14 9.36a2 2 0 0 0 .05-2.77L67.4 2.5a2 2 0 0 0-2.87-.06L30 36.5z" stroke="#A01E25" stroke-width="2"/></svg>