<svg viewBox="0 0 128 127" fill="none" xmlns="http://www.w3.org/2000/svg"><path d="M115.9 29.69l.39.88h7.1c1.58 0 3.11 1.52 3.11 3.54v9.78c0 1.9-1.42 3.25-3.1 3.25H116.28l-.4.89-.7 1.57c-.7 1.55-1.08 2.4-1.52 3.24a58.68 58.68 0 0 1-2.75 4.45l-.5.75.44.78 3.08 5.66a3.56 3.56 0 0 1-1.16 4.7l-7.98 4.89c-1.43.87-3.3.4-4.19-1.23l-3.03-5.59-.48-.87-.98.1-.94.09c-1.44.14-2.9.28-4.03.28-1.12 0-2.57-.14-4.01-.28l-.95-.1-.99-.09-.47.87-3.04 5.59a2.96 2.96 0 0 1-4.18 1.22l-7.98-4.89a3.56 3.56 0 0 1-1.16-4.69l3.08-5.66.43-.78-.49-.75a58.85 58.85 0 0 1-2.73-4.4c-.45-.86-.85-1.74-1.58-3.38l-.66-1.48-.4-.89H58.6a3.13 3.13 0 0 1-3.11-3.25v-9.78c0-2.02 1.53-3.54 3.1-3.54h7.42l.4-.88a59.66 59.66 0 0 1 2.2-4.64c.42-.75.89-1.47 1.76-2.8l1.01-1.54.49-.75-.43-.78-3.08-5.66a3.56 3.56 0 0 1 1.15-4.7l7.99-4.89c1.43-.87 3.3-.4 4.18 1.23l3.04 5.59.47.87.99-.1.93-.09c1.45-.14 2.9-.28 4.03-.28 1.13 0 2.58.14 4.02.28l.95.1.98.09.48-.87 3.03-5.59a2.96 2.96 0 0 1 4.2-1.22l7.97 4.89a3.56 3.56 0 0 1 1.15 4.69l-3.08 5.66-.42.78.49.75 1.06 1.63a47.54 47.54 0 0 1 1.69 2.67c.55.99 1.04 2.05 2.22 4.68z" stroke="#A01E25" stroke-width="3"/><circle cx="30" cy="8" r="6.5" stroke="#A01E25" stroke-width="3"/><circle cx="91" cy="39" r="6.5" stroke="#A01E25" stroke-width="3"/><circle cx="91" cy="39" r="19.5" stroke="#A01E25" stroke-width="3"/><circle cx="113" cy="101" r="6.5" stroke="#A01E25" stroke-width="3"/><path d="M106.5 100.5V77.25a6.25 6.25 0 1 1 12.5 0V98.5" stroke="#A01E25" stroke-width="3"/><path d="M125.4 108.03a1.5 1.5 0 1 0 2.2-2.06l-2.2 2.06zm-7.5-8l7.5 8 2.2-2.06-7.5-8-2.2 2.06zM125.44 124.56a1.5 1.5 0 0 0 2.12-2.12l-2.12 2.12zm-18-18l18 18 2.12-2.12-18-18-2.12 2.12zM1.5 0a1.5 1.5 0 0 0 0 3V0zM30 3a1.5 1.5 0 0 0 0-3v3zM1.5 3H30V0H1.5v3zM1.5 13a1.5 1.5 0 0 0 0 3v-3zM30 16a1.5 1.5 0 0 0 0-3v3zM1.5 16H30v-3H1.5v3z" fill="#A01E25"/><path d="M36 6l17.3 17.7a5.9 5.9 0 1 1-8.34 8.34L26 13.5" stroke="#A01E25" stroke-width="3"/><path d="M6.5 55A2.5 2.5 0 0 1 9 52.5h83a2.5 2.5 0 0 1 2.5 2.5v62.5h-88V55z" fill="#F9F9F9" stroke="#A01E25" stroke-width="3"/><path d="M12.5 58.5h76v59h-76v-59z" fill="#F9F9F9" stroke="#A01E25" stroke-width="3"/><path d="M24 70.5a1.5 1.5 0 0 0 0 3v-3zm39 3a1.5 1.5 0 0 0 0-3v3zm-39 0h39v-3H24v3zM24 77.5a1.5 1.5 0 0 0 0 3v-3zm29 3a1.5 1.5 0 0 0 0-3v3zm-29 0h29v-3H24v3zM24 84.5a1.5 1.5 0 0 0 0 3v-3zm22 3a1.5 1.5 0 0 0 0-3v3zm-22 0h22v-3H24v3zM51 84.5a1.5 1.5 0 0 0 0 3v-3zm14 3a1.5 1.5 0 0 0 0-3v3zm-14 0h14v-3H51v3zM24 91.5a1.5 1.5 0 0 0 0 3v-3zm14.5 3a1.5 1.5 0 0 0 0-3v3zm-14.5 0h14.5v-3H24v3zM24 98.5a1.5 1.5 0 0 0 0 3v-3zm33 3a1.5 1.5 0 0 0 0-3v3zm-33 0h33v-3H24v3z" fill="#A01E25"/><path d="M1.5 118.32c0-.45.37-.82.82-.82h96.36c.45 0 .82.36.82.82a7.18 7.18 0 0 1-7.18 7.18H8.68a7.18 7.18 0 0 1-7.18-7.18z" fill="#F9F9F9" stroke="#A01E25" stroke-width="3"/><rect x="18" y="114" width="10" height="5" rx="2.5" fill="#A01E25"/><rect x="32" y="114" width="10" height="5" rx="2.5" fill="#A01E25"/><rect x="46" y="114" width="10" height="5" rx="2.5" fill="#A01E25"/><rect x="60" y="114" width="10" height="5" rx="2.5" fill="#A01E25"/><rect x="74" y="114" width="10" height="5" rx="2.5" fill="#A01E25"/></svg>