<svg viewBox="0 0 89 80" fill="none" xmlns="http://www.w3.org/2000/svg"><path d="M3.05 52.15a1 1 0 0 0 .65 1.9l-.65-1.9zm21.3-6.18l.12-.99-.23-.03-.22.08.32.94zm9.46 12.06a1 1 0 1 0 .06 2l-.06-2zM3.7 54.04l20.96-7.12-.64-1.9-20.97 7.13.65 1.9zm20.51-7.07l35.58 4.62.26-1.98-35.58-4.63-.26 1.99zM59.5 57.33l-25.69.7.06 2 25.68-.7-.05-2zm2.76-2.4a2.88 2.88 0 0 1-2.76 2.4l.05 2a4.88 4.88 0 0 0 4.68-4.08l-1.97-.33zm-2.47-3.34a2.88 2.88 0 0 1 2.47 3.33l1.97.33a4.88 4.88 0 0 0-4.18-5.64l-.26 1.98z" fill="#0BA14B"/><path d="M1 73.67l10.8-5.23a4 4 0 0 1 3-.2l30.28 10.1a10 10 0 0 0 9.17-1.5l31.33-23.57a3.9 3.9 0 0 0-4.4-6.41L54.3 63.64a3 3 0 0 1-3 .1l-9.55-5.11" stroke="#0BA14B" stroke-width="2"/><path d="M58.76 50.33l11.56-4.57a6 6 0 0 1 6.24 1.15l1.59 1.44" stroke="#0BA14B" stroke-width="2"/><path d="M41 17.82h1.5v-6.48c.54-.11 1.1-.19 1.67-.24.57-.07 1.17-.1 1.81-.1.66 0 1.3.06 1.9.18a4.2 4.2 0 0 1 1.61.65c.46.31.82.75 1.09 1.3.28.55.42 1.26.42 2.13 0 .8-.14 1.48-.42 2.05-.27.55-.63 1-1.09 1.36-.44.36-.95.61-1.52.77-.58.16-1.16.24-1.76.24h-.69a4.85 4.85 0 0 1-.6-.06v1.14h3.05v1.8H44.9V25h-2.4v-2.45H41v-1.79h1.5v-1.14H41v-1.8zm5.2-4.65c-.26 0-.5.01-.73.04-.23.01-.42.03-.56.06v4.45a4.07 4.07 0 0 0 1.97-.04 1.99 1.99 0 0 0 1.35-1.18c.14-.31.21-.69.21-1.12 0-.8-.2-1.37-.63-1.7a2.49 2.49 0 0 0-1.62-.51z" fill="#0BA14B"/><circle cx="46" cy="18" r="17" stroke="#0BA14B" stroke-width="2"/><circle cx="35" cy="18" r="1" fill="#0BA14B"/><circle cx="57" cy="18" r="1" fill="#0BA14B"/></svg>
