<svg viewBox="0 0 91 92" fill="none" xmlns="http://www.w3.org/2000/svg"><path d="M53.83 39.78V5.96a4 4 0 0 0-4-4H5a4 4 0 0 0-4 4v57.21a4 4 0 0 0 4 4h39.7" stroke="#A01E25" stroke-width="2"/><path d="M33.6 6.83a1 1 0 1 0 0 2v-2zm0 2h32.62v-2H33.6v2z" fill="#A01E25"/><rect x="66.57" y="1" width="17.57" height="17.57" rx="1" stroke="#A01E25" stroke-width="2"/><path d="M70.78 18.26v5.87l4.57 3.91 4.56-3.9v-5.88" stroke="#A01E25" stroke-width="2"/><path d="M75.35 28.04v3.22a2 2 0 0 1-2 2h-4.48a2 2 0 0 0-2 2v3.87M10.13 24.78L27.09 15l16.95 9.78V43.7L27.1 54.13 10.13 43.7V24.78z" stroke="#A01E25" stroke-width="2"/><path d="M44.7 51.52l22.17-13.04 22.17 13.04V76.3L66.87 90 44.7 76.3V51.52z" stroke="#A01E25" stroke-width="2"/><path d="M45.35 51.52l21.52 13.05V90" stroke="#A01E25" stroke-width="2"/><path d="M89.04 8.83a1 1 0 0 0 0-2v2zm-5.21 0h5.21v-2h-5.21v2z" fill="#A01E25"/><circle cx="26.43" cy="7.83" r="1.3" fill="#A01E25"/><circle cx="77.3" cy="57.39" r="1.3" fill="#A01E25"/><path d="M66.87 64.57l4.56-3.27M82.52 54.78l5.87-3.26" stroke="#A01E25" stroke-width="2" stroke-linecap="round"/><path d="M10.13 24.78l16.96 9.13 16.3-9.13M27.09 33.91v20.22" stroke="#A01E25" stroke-width="2"/></svg>