<svg viewBox="0 0 41 41" fill="none" xmlns="http://www.w3.org/2000/svg"><path fill-rule="evenodd" clip-rule="evenodd" d="M1.38 14.41l5.35-4.16.88 1.14-5.35 4.15c-.52.41-.83 1.04-.83 1.7v19.4c0 1.18.97 2.15 2.16 2.15h32.98c1.2 0 2.15-.97 2.15-2.15v-19.4c0-.66-.3-1.29-.83-1.7l-5.34-4.15.88-1.14 5.34 4.16a3.59 3.59 0 0 1 1.39 2.83v19.4c0 1.98-1.6 3.58-3.59 3.58H3.6A3.59 3.59 0 0 1 0 36.64v-19.4c0-1.1.51-2.15 1.38-2.83zM19.26.48c.49-.35 1.15-.35 1.64 0l3.18 2.22-.83 1.18-3.17-2.23-3.18 2.23-.82-1.18L19.26.48z" fill="#A01E25"/><path fill-rule="evenodd" clip-rule="evenodd" d="M21.4 26.34a2.15 2.15 0 0 0-2.62.02L2.23 39l-.88-1.14L17.9 25.22c1.28-.99 3.07-1 4.36-.02l16.9 12.66-.87 1.14-16.9-12.66zM12.1 25L.64 16.06l.89-1.13 11.47 8.96a.72.72 0 1 1-.88 1.13zM27.16 23.89l11.11-8.97.9 1.12L28.07 25a.72.72 0 0 1-.9-1.11zM8.61 4.03c-.4 0-.72.31-.72.71V16.2a.72.72 0 0 1-1.44 0V4.74c0-1.2.98-2.16 2.18-2.15l22.95.32c1.18.02 2.12.98 2.12 2.15V16.2a.72.72 0 0 1-1.43 0V5.06c0-.39-.32-.7-.7-.71L8.6 4.03z" fill="#A01E25"/><path d="M21.88 10.98h.7l-.48 2.72c-.06.32-.06.54-.01.68.05.14.17.21.34.21s.34-.04.51-.12c.17-.08.32-.2.45-.37.14-.17.24-.38.32-.63.1-.25.13-.56.13-.9a3 3 0 0 0-.25-1.29c-.16-.35-.4-.64-.69-.87-.29-.24-.63-.4-1.02-.51-.4-.11-.82-.17-1.28-.17a3.74 3.74 0 0 0-2.63 1.06 3.76 3.76 0 0 0-1.05 2.64c0 .52.07.99.23 1.4a2.87 2.87 0 0 0 1.8 1.73 4.54 4.54 0 0 0 2.2.17c.25-.04.48-.11.68-.2l.3.96a3.3 3.3 0 0 1-.84.28 5.62 5.62 0 0 1-2.78-.2 3.84 3.84 0 0 1-2.38-2.2 4.92 4.92 0 0 1-.34-1.9c0-.73.13-1.39.4-1.98a4.59 4.59 0 0 1 2.58-2.46 5.28 5.28 0 0 1 3.56-.07c.54.18 1 .43 1.38.76.4.33.7.74.92 1.22a3.82 3.82 0 0 1 .1 2.83 2.9 2.9 0 0 1-1.55 1.63 2.65 2.65 0 0 1-1.6.19.94.94 0 0 1-.36-.2.8.8 0 0 1-.2-.33 1.28 1.28 0 0 1-.05-.53h-.04a4.67 4.67 0 0 1-.71.78c-.14.1-.3.18-.46.24-.17.06-.35.09-.55.09a1.1 1.1 0 0 1-.47-.1 1.19 1.19 0 0 1-.38-.3 1.54 1.54 0 0 1-.35-1.07 3.67 3.67 0 0 1 .74-2.25c.24-.3.5-.54.8-.72.32-.19.64-.28.98-.28.24 0 .43.04.6.11.15.07.3.16.44.27l.3-.32zm-.64 1.21a1.08 1.08 0 0 0-.27-.17 1 1 0 0 0-.91.11c-.17.12-.31.27-.44.45a2.24 2.24 0 0 0-.38 1.27c0 .21.04.4.13.53.1.14.25.21.47.21.1 0 .2-.02.3-.08.1-.06.21-.13.31-.23a2.74 2.74 0 0 0 .54-.7l.25-1.39z" fill="#A01E25"/></svg>