<svg viewBox="0 0 91 76" fill="none" xmlns="http://www.w3.org/2000/svg"><circle cx="23" cy="66" r="9" stroke="#0BA14B" stroke-width="2"/><circle cx="23" cy="66" r="3" stroke="#0BA14B" stroke-width="2"/><path d="M32 66h30" stroke="#0BA14B" stroke-width="2"/><path d="M58.5 49.5a1 1 0 1 0 2 0h-2zm-43 12a1 1 0 1 0 0-2v2zm67.78-33.88l-.85.52.85-.52zM80 67h8v-2h-8v2zm11-6.5V43h-2v17.5h2zM91 43c0-1.08-.3-2.35-.73-3.66a37.7 37.7 0 0 0-1.73-4.2 94.34 94.34 0 0 0-4.4-8.04l-1.71 1.04a92.36 92.36 0 0 1 4.3 7.86c.67 1.4 1.24 2.75 1.65 3.97.4 1.24.62 2.27.62 3.03h2zM58.5 26v15h2V26h-2zm1 14h-55v2h55v-2zm-54 27h8v-2h-8v2zm71.22-44H67v2h9.72v-2zM67 23h-5.5v2H67v-2zm-1 1v15h2V24h-2zm5 20h19v-2H71v2zm-12.5-3v8.5h2V41h-2zm-58 3v16.5h2V44h-2zm0 16.5V62h2v-1.5h-2zm1 1h14v-2h-14v2zm87.5-1V64h2v-3.5h-2zm-58.5 1H64v-2H30.5v2zm48 0H90v-2H78.5v2zM66 39a5 5 0 0 0 5 5v-2a3 3 0 0 1-3-3h-2zM5.5 65a3 3 0 0 1-3-3h-2a5 5 0 0 0 5 5v-2zm-1-25a4 4 0 0 0-4 4h2c0-1.1.9-2 2-2v-2zm56-14a1 1 0 0 1 1-1v-2a3 3 0 0 0-3 3h2zm23.64 1.1a8.62 8.62 0 0 0-7.42-4.1v2a6.62 6.62 0 0 1 5.7 3.14l1.72-1.04zM88 67a3 3 0 0 0 3-3h-2a1 1 0 0 1-1 1v2z" fill="#0BA14B"/><circle cx="71" cy="66" r="9" stroke="#0BA14B" stroke-width="2"/><circle cx="71" cy="66" r="3" stroke="#0BA14B" stroke-width="2"/><path d="M29 31.5a1 1 0 1 0 2 0h-2zm.25-18a1 1 0 1 0 2 0h-2zm19 11.5a1 1 0 1 0 2 0h-2zM5.5 41V21.5h-2V41h2zm17-21.5v-8h-2v8h2zM40 9.5v-6h-2v6h2zm-19.5 10V27h2v-7.5h-2zm0 7.5v14h2V27h-2zm18-1H30v2h8.5v-2zM30 26h-8.5v2H30v-2zm-1 1v4.5h2V27h-2zm-5.5-16.5h6.75v-2H23.5v2zm6.75 0H39v-2h-8.75v2zm-1-1v4h2v-4h-2zM6.5 20.5H10v-2H6.5v2zm2.5-1V23h2v-3.5H9zm3 6.5h2v-2h-2v2zm5-3v-3.5h-2V23h2zM41 2.5h5.5v-2H41v2zm4.5-1v2h2v-2h-2zm3 5h2v-2h-2v2zm-2-4h6v-2h-6v2zm6 0h5v-2h-5v2zm1 1v-2h-2v2h2zM10 20.5h5.75v-2H10v2zm5.75 0h5.75v-2h-5.75v2zM38 9.5v10h2v-10h-2zm0 10V41h2V19.5h-2zm20.5-16v16h2v-16h-2zm0 16V27h2v-7.5h-2zm-19.5 1h10.25v-2H39v2zm10.25 0H59.5v-2H49.25v2zm-1-1V25h2v-5.5h-2zm2.25-13a3 3 0 0 0 3-3h-2a1 1 0 0 1-1 1v2zm-5-3a3 3 0 0 0 3 3v-2a1 1 0 0 1-1-1h-2zM14 26a3 3 0 0 0 3-3h-2a1 1 0 0 1-1 1v2zM57.5 2.5a1 1 0 0 1 1 1h2a3 3 0 0 0-3-3v2zM9 23a3 3 0 0 0 3 3v-2a1 1 0 0 1-1-1H9zM40 3.5a1 1 0 0 1 1-1v-2a3 3 0 0 0-3 3h2zm-17.5 8a1 1 0 0 1 1-1v-2a3 3 0 0 0-3 3h2zm-17 10a1 1 0 0 1 1-1v-2a3 3 0 0 0-3 3h2z" fill="#0BA14B"/></svg>
