<svg viewBox="0 0 90 126" fill="none" xmlns="http://www.w3.org/2000/svg"><path d="M1 78.54l-.56-.83-.44.3v.53h1zm68.61 45.49v1h.41l.3-.3-.71-.7zM89 62.88h1v-1h-1v1zm-11.81-1a1 1 0 1 0 0 2v-2zm11.52 43.05l-.71-.7.7.7zM2 123.03v-44.5H0v44.5h2zm-1-43.5h68.61v-2H1v2zm67.61-1v45.5h2v-45.5h-2zm1 44.5H2v2h67.61v-2zm.7 1.7l19.1-19.09-1.41-1.41-19.1 19.1 1.42 1.4zM90 104.24V62.88h-2v41.35h2zM88.37 62.1L68.98 77.76l1.26 1.56 19.39-15.66-1.26-1.56zM1.57 79.36l13.54-9.25-1.13-1.65L.44 77.71l1.12 1.65zM89 61.88H77.19v2H89v-2zm.41 43.76a2 2 0 0 0 .59-1.41h-2l1.41 1.41zM0 123.03c0 1.1.9 2 2 2v-2H0z" fill="#0BA14B"/><path d="M72.6 37.86v9.92a2 2 0 0 1-2 2h-2.72a2 2 0 0 1-2-2v-9.92m6.71 0v-19.7c2-.75 5.97-3.44 5.97-8.21C78.56 3.98 74.08 1 69.6 1c-4.47 0-8.95 3.73-8.95 8.95 0 5.22 2.98 7.46 5.22 8.2v19.71m6.71 0h-6.7" stroke="#0BA14B" stroke-width="2"/><path d="M24.37 72.61a1 1 0 1 0-2 0h2zm59.4 33.03a1 1 0 0 0 0-2v2zM3.15 123.3l1.05-.9-1.3-1.52-1.05.9 1.3 1.52zm3.13-2.69l2.1-1.79-1.3-1.51-2.1 1.78 1.3 1.52zm4.18-3.58l2.09-1.79-1.3-1.51-2.1 1.78 1.31 1.52zm4.18-3.58l2.08-1.79-1.3-1.51-2.08 1.79 1.3 1.51zm4.17-3.58l2.1-1.79-1.31-1.51-2.09 1.79 1.3 1.52zm4.18-3.58l1.04-.89-1.3-1.52-1.04.9 1.3 1.52zm-.6-33.68v1.6h2v-1.6h-2zm0 4.8v3.21h2v-3.2h-2zm0 6.41v3.2h2v-3.2h-2zm0 6.4v3.21h2v-3.2h-2zm0 6.41v3.2h2v-3.2h-2zm0 6.4v1.61h2v-1.6h-2zm1 2.61h1.5v-2h-1.5v2zm4.52 0h3.02v-2H27.9v2zm6.04 0h3.02v-2h-3.02v2zm6.04 0H43v-2h-3.02v2zm6.05 0h3.02v-2h-3.02v2zm6.04 0h3.02v-2h-3.02v2zm6.04 0h3.02v-2H58.1v2zm6.04 0h3.02v-2h-3.02v2zm6.04 0h3.02v-2h-3.02v2zm6.04 0h3.02v-2h-3.02v2zm6.04 0h1.5v-2h-1.5v2zM34.43 55.93a1 1 0 0 0 1.03 1.72l-1.03-1.72zm1.03-26.84a1 1 0 0 0-1.03 1.71l1.03-1.71zm.79 20.59l-.4.92.4-.92zm0-3.68l.4.92-.4-.92zm2.8 8.33l-.52-.86.52.86zm-.25-3.55l-.39.91.4-.91zm-3.34 6.87l4.1-2.46-1.03-1.72-4.1 2.46 1.03 1.72zm3.74-7.8l-2.56-1.09-.79 1.84 2.56 1.1.79-1.84zm-2.56-2.93l1.86-.8-.78-1.83-1.87.8.8 1.83zm1.86-6.31l-1.86-.8-.79 1.84 1.87.8.78-1.84zm-1.86-2.64l2.56-1.1-.79-1.83-2.56 1.1.8 1.83zm2.92-6.42l-4.1-2.46-1.03 1.71 4.1 2.46 1.03-1.71zm-.36 5.33a3 3 0 0 0 .36-5.33l-1.03 1.71a1 1 0 0 1-.12 1.78l.79 1.84zm-2.56 2.93a1 1 0 0 1 0-1.84l-.79-1.83a3 3 0 0 0 0 5.51l.8-1.84zm1.86 6.31a3 3 0 0 0 0-5.51l-.78 1.84a1 1 0 0 1 0 1.84l.78 1.83zm-1.86 2.64a1 1 0 0 1 0-1.84l-.79-1.84a3 3 0 0 0 0 5.52l.8-1.84zm2.92 6.43a3 3 0 0 0-.36-5.33l-.79 1.83a1 1 0 0 1 .12 1.78l1.03 1.72zM42.25 52.95a1 1 0 1 0 1.03 1.72l-1.03-1.72zm1.03-26.85a1 1 0 1 0-1.03 1.72l1.03-1.72zm.79 20.6l-.4.92.4-.92zm0-3.68l.4.92-.4-.92zm2.8 8.33l-.52-.86.52.86zm-.25-3.56l-.39.92.4-.92zm-3.34 6.88l4.1-2.47-1.03-1.71-4.1 2.46 1.03 1.72zm3.74-7.8l-2.56-1.1-.79 1.85 2.56 1.1.79-1.85zm-2.56-2.93l1.86-.8-.78-1.84-1.87.8.8 1.84zm1.86-6.31l-1.86-.8-.79 1.84 1.87.8.78-1.84zm-1.86-2.64l2.56-1.1-.79-1.83-2.56 1.1.8 1.83zm2.92-6.42l-4.1-2.47-1.03 1.72 4.1 2.46 1.03-1.71zm-.36 5.33a3 3 0 0 0 .36-5.33l-1.03 1.71a1 1 0 0 1-.12 1.78l.79 1.84zm-2.56 2.93a1 1 0 0 1 0-1.84l-.79-1.84a3 3 0 0 0 0 5.52l.8-1.84zm1.86 6.31a3 3 0 0 0 0-5.51l-.78 1.84a1 1 0 0 1 0 1.83l.78 1.84zm-1.86 2.64a1 1 0 0 1 0-1.84l-.79-1.84a3 3 0 0 0 0 5.52l.8-1.84zm2.92 6.42a3 3 0 0 0-.36-5.33l-.79 1.84a1 1 0 0 1 .12 1.78l1.03 1.71zM51.56 58.92a1 1 0 1 0 1.03 1.71l-1.03-1.71zm1.03-26.85a1 1 0 0 0-1.03 1.71l1.03-1.71zm.8 20.6l-.4.91.4-.92zm0-3.68l.38.92-.39-.92zm2.79 8.32l-.52-.86.52.86zm-.24-3.55l-.4.92.4-.92zm-3.35 6.87l4.1-2.46-1.03-1.72-4.1 2.47 1.03 1.71zm3.74-7.8l-2.56-1.09-.78 1.84 2.55 1.1.8-1.84zm-2.56-2.92l1.87-.8-.8-1.84-1.85.8.78 1.84zm1.87-6.32l-1.87-.8-.78 1.84 1.86.8.79-1.84zm-1.87-2.63l2.56-1.1-.79-1.84-2.55 1.1.78 1.84zm2.92-6.43l-4.1-2.46-1.03 1.71 4.1 2.47 1.03-1.72zm-.36 5.33a3 3 0 0 0 .36-5.33l-1.03 1.72a1 1 0 0 1-.12 1.77l.8 1.84zm-2.56 2.93a1 1 0 0 1 0-1.83L53 39.12a3 3 0 0 0 0 5.51l.78-1.84zm1.87 6.32a3 3 0 0 0 0-5.52l-.8 1.84a1 1 0 0 1 0 1.84l.8 1.84zm-1.87 2.63a1 1 0 0 1 0-1.83L53 48.07a3 3 0 0 0 0 5.51l.78-1.84zm2.92 6.43a3 3 0 0 0-.36-5.33l-.79 1.84a1 1 0 0 1 .12 1.77l1.03 1.72z" fill="#0BA14B"/><ellipse cx="32.7" cy="60.52" rx="3.73" ry="2.24" fill="#0BA14B"/><ellipse cx="42.76" cy="60.52" rx="4.47" ry="2.24" fill="#0BA14B"/><ellipse cx="52.82" cy="60.52" rx="3.73" ry="2.24" fill="#0BA14B"/><path d="M60.26 52.49a1 1 0 1 0 0 2v-2zm-26.53 2a1 1 0 1 0 0-2v2zm35.83 14.57l.64.77-.64-.77zm18.49-15.22l.63.77-.63-.77zm-65.3-.17l.58.82-.58-.82zM1.5 68.93l.59.8-.59-.8zm.59.8L23.33 54.5l-1.16-1.63L.92 68.11l1.17 1.63zM87.4 53.08L68.93 68.29l1.27 1.54 18.48-15.22-1.27-1.54zM68.93 68.29H1.63v2h67.3v-2zm-8.67-13.8h27.66v-2H60.26v2zm-36.93 0h10.4v-2h-10.4v2zm45.6 13.8v2a2 2 0 0 0 1.27-.46l-1.27-1.54zM88.68 54.6a1.2 1.2 0 0 0-.76-2.12v2a.8.8 0 0 1-.51-1.42l1.27 1.54zm-65.35-.12v-2a2 2 0 0 0-1.16.37l1.16 1.63zM.93 68.1a1.2 1.2 0 0 0 .7 2.18v-2a.8.8 0 0 1 .46 1.45L.92 68.1z" fill="#0BA14B"/></svg>
