<svg viewBox="0 0 40 40" fill="none" xmlns="http://www.w3.org/2000/svg"><path fill-rule="evenodd" clip-rule="evenodd" d="M28.57 1.43H11.43c-.79 0-1.43.64-1.43 1.43v34.28c0 .8.64 1.43 1.43 1.43h17.14c.8 0 1.43-.64 1.43-1.43V2.86c0-.8-.64-1.43-1.43-1.43zM11.43 0a2.86 2.86 0 0 0-2.86 2.86v34.28A2.86 2.86 0 0 0 11.43 40h17.14a2.86 2.86 0 0 0 2.86-2.86V2.86A2.86 2.86 0 0 0 28.57 0H11.43z" fill="#A01E25"/><path fill-rule="evenodd" clip-rule="evenodd" d="M30.71 6.07H9.3V4.64H30.7v1.43zM30.71 32.14H9.3v-1.43H30.7v1.43zM16.43 2.86c0-.4.32-.72.71-.72H20a.71.71 0 0 1 0 1.43h-2.86a.71.71 0 0 1-.71-.71zM22.14 2.86c0-.4.32-.72.72-.72h.71a.71.71 0 1 1 0 1.43h-.71a.71.71 0 0 1-.72-.71zM33.86 5.21a.71.71 0 0 1 .85-1.14l-.42.56.42-.56h.01v.01a1.52 1.52 0 0 1 .1.08c.05.05.13.11.2.2.17.18.39.44.6.79.41.7.8 1.77.8 3.24 0 1.48-.39 2.54-.8 3.25a4.48 4.48 0 0 1-.9 1.06v.01l-.44-.57.43.57a.71.71 0 0 1-.85-1.14h-.01l.02-.01.12-.12c.1-.1.25-.28.4-.53.29-.5.6-1.31.6-2.52 0-1.2-.31-2.01-.6-2.51a3.06 3.06 0 0 0-.52-.65l-.02-.02zM5.79 5.21a.71.71 0 0 0-.86-1.14l.42.56-.42-.56-.02.01a1.48 1.48 0 0 0-.09.08 4.48 4.48 0 0 0-.8.99c-.41.7-.8 1.77-.8 3.24 0 1.48.39 2.54.8 3.25a4.48 4.48 0 0 0 .9 1.06v.01l.44-.57-.43.57a.71.71 0 0 0 .86-1.14l-.02-.01a3.06 3.06 0 0 1-.51-.65c-.3-.5-.62-1.31-.62-2.52 0-1.2.32-2.01.62-2.51a3.06 3.06 0 0 1 .53-.67z" fill="#A01E25"/><path fill-rule="evenodd" clip-rule="evenodd" d="M3.4 2.76l-1-.1v.01h-.01a2.31 2.31 0 0 0-.12.1l-.28.3A8.01 8.01 0 0 0 0 8.4 8.01 8.01 0 0 0 2.28 14l.09.09.03.02v.01l.47-.55-.46.55a.71.71 0 0 0 .91-1.1 2.13 2.13 0 0 1-.26-.26 6.58 6.58 0 0 1-1.62-4.37 6.58 6.58 0 0 1 1.83-4.57l.05-.05m.1-1.01c.25.3.2.75-.1 1m.1-1a.71.71 0 0 0-1.01-.1l1 .1zm0 0l-1.01-.1 1 .1zM36.24 2.76l1-.1v.01h.02a1.8 1.8 0 0 1 .1.1l.29.3a8.01 8.01 0 0 1 2 5.33 8.01 8.01 0 0 1-2.28 5.6l-.09.09-.02.02h-.01v.01l-.46-.55.45.55a.71.71 0 0 1-.91-1.1 2.1 2.1 0 0 0 .26-.26 6.58 6.58 0 0 0 1.62-4.37 6.58 6.58 0 0 0-1.82-4.57 2.1 2.1 0 0 0-.05-.05h-.01m-.1-1.01c-.25.3-.2.75.1 1m-.1-1c.26-.3.71-.35 1.01-.1l-1 .1zm0 0l1.01-.1-1 .1zM20 35.71a.71.71 0 1 0 0-1.42.71.71 0 0 0 0 1.42zm0 1.43a2.14 2.14 0 1 0 0-4.28 2.14 2.14 0 0 0 0 4.28z" fill="#A01E25"/></svg>