<svg viewBox="0 0 80 81" fill="none" xmlns="http://www.w3.org/2000/svg"><path d="M1 4a3 3 0 0 1 3-3h43a3 3 0 0 1 3 3v68H1V4z" fill="#F9F9F9" stroke="#0BA14B" stroke-width="2"/><path d="M1 9.5h49M1 72h49v5a3 3 0 0 1-3 3H4a3 3 0 0 1-3-3v-5zM27 54a3 3 0 0 1 3-3h11a3 3 0 0 1 3 3v18H27V54z" stroke="#0BA14B" stroke-width="2"/><path d="M32 54a1 1 0 1 0 0 2v-2zm7.02 2a1 1 0 1 0 0-2v2zM32 56h7.02v-2H32v2zM32 58.1a1 1 0 1 0 0 2v-2zm7.02 2a1 1 0 1 0 0-2v2zm-7.02 0h7.02v-2H32v2z" fill="#0BA14B"/><path d="M7 23a3 3 0 0 1 3-3h10a3 3 0 0 1 3 3v11a3 3 0 0 1-3 3H10a3 3 0 0 1-3-3V23zM7 32h15" stroke="#0BA14B" stroke-width="2"/><circle cx="11" cy="55" r="3" stroke="#0BA14B" stroke-width="2"/><circle cx="11" cy="61" r="3" stroke="#0BA14B" stroke-width="2"/><path d="M30.5 23a1 1 0 1 0 0 2v-2zm12 2a1 1 0 1 0 0-2v2zm-12 0h12v-2h-12v2zM30.5 27a1 1 0 1 0 0 2v-2zm7.5 2a1 1 0 1 0 0-2v2zm-7.5 0H38v-2h-7.5v2z" fill="#0BA14B"/><path d="M50 49h28.38c.34 0 .62.28.62.62C79 58.12 72.11 65 63.62 65H50" stroke="#0BA14B" stroke-width="2"/><circle cx="64" cy="38" r="1" fill="#0BA14B"/><circle cx="67" cy="41" r="1" fill="#0BA14B"/><circle cx="72" cy="37" r="1" fill="#0BA14B"/><circle cx="68" cy="36" r="1" fill="#0BA14B"/><circle cx="64" cy="34" r="1" fill="#0BA14B"/><circle cx="69" cy="32" r="1" fill="#0BA14B"/><circle cx="74" cy="33" r="1" fill="#0BA14B"/><circle cx="64" cy="30" r="1" fill="#0BA14B"/><circle cx="60" cy="29" r="1" fill="#0BA14B"/><circle cx="59" cy="34" r="1" fill="#0BA14B"/><circle cx="60" cy="39" r="1" fill="#0BA14B"/><circle cx="63" cy="43" r="1" fill="#0BA14B"/><circle cx="69" cy="44" r="1" fill="#0BA14B"/><circle cx="72" cy="41" r="1" fill="#0BA14B"/><circle cx="66" cy="46" r="1" fill="#0BA14B"/></svg>
