<svg viewBox="0 0 41 40" fill="none" xmlns="http://www.w3.org/2000/svg"><path fill-rule="evenodd" clip-rule="evenodd" d="M0 11.6c0-1.45 1.4-2.48 2.77-2.06l10.6 3.24c.14.04.29.04.43-.01l6-2 .46 1.36-6 2c-.43.14-.89.14-1.31.01l-10.6-3.23a.72.72 0 0 0-.92.68v22.77c0 .31.2.59.5.68l11.45 3.5c.14.04.29.04.42 0l12.04-3.68c.41-.13.85-.13 1.26 0L37.7 38.1c.46.14.92-.2.92-.68v-22.8c0-.3-.2-.58-.48-.67l-5.47-1.82.46-1.36 5.46 1.82c.87.3 1.47 1.11 1.47 2.03v22.8c0 1.44-1.4 2.47-2.78 2.05l-10.6-3.24a.72.72 0 0 0-.43 0L14.22 39.9c-.4.12-.84.12-1.25 0L1.52 36.4A2.15 2.15 0 0 1 0 34.36V11.59z" fill="#A01E25"/><path fill-rule="evenodd" clip-rule="evenodd" d="M12.88 39.35V13.59h1.43v25.76h-1.43zM25.76 27.54v-7.87h1.43v7.87a.72.72 0 0 1-1.43 0zM26.47 30.05c.4 0 .72.32.72.71v4.65h-1.43v-4.65c0-.4.32-.71.71-.71z" fill="#A01E25"/><path fill-rule="evenodd" clip-rule="evenodd" d="M26.47 21.79l13.09 4-.42 1.37-12.67-3.88-12.89 3.94L8 25.36A.72.72 0 0 1 8.45 24l5.15 1.72 12.87-3.93zM5.16 24.65L.5 23.22l.42-1.37 4.65 1.43a.72.72 0 0 1-.42 1.37zM32.05 11.16a9.2 9.2 0 0 0 .86-3.29 6.44 6.44 0 0 0-12.88 0c0 .8.3 1.94.87 3.29a26.52 26.52 0 0 0 4.63 7.2c.37.4.69.68.92.85l.02.01.02-.01c.24-.17.55-.45.93-.85a26.52 26.52 0 0 0 4.63-7.2zm-5.58 9.59c1.79 0 7.87-8.53 7.87-12.88a7.87 7.87 0 0 0-15.74 0c0 4.35 6.08 12.88 7.87 12.88z" fill="#A01E25"/><circle cx="26.47" cy="7.87" r="2.15" fill="#A01E25"/></svg>