<svg viewBox="0 0 80 81" fill="none" xmlns="http://www.w3.org/2000/svg"><path d="M30 4a3 3 0 0 1 3-3h43a3 3 0 0 1 3 3v68H30V4z" fill="#F9F9F9" stroke="#0BA14B" stroke-width="2"/><path d="M30 9.5h49M30 72h49v5a3 3 0 0 1-3 3H33a3 3 0 0 1-3-3v-5zM56 54a3 3 0 0 1 3-3h11a3 3 0 0 1 3 3v18H56V54z" stroke="#0BA14B" stroke-width="2"/><path d="M61 54a1 1 0 1 0 0 2v-2zm7.02 2a1 1 0 1 0 0-2v2zM61 56h7.02v-2H61v2zM61 58.1a1 1 0 1 0 0 2v-2zm7.02 2a1 1 0 1 0 0-2v2zm-7.02 0h7.02v-2H61v2z" fill="#0BA14B"/><path d="M36 23a3 3 0 0 1 3-3h10a3 3 0 0 1 3 3v11a3 3 0 0 1-3 3H39a3 3 0 0 1-3-3V23zM36 32h15" stroke="#0BA14B" stroke-width="2"/><circle cx="40" cy="55" r="3" stroke="#0BA14B" stroke-width="2"/><circle cx="40" cy="61" r="3" stroke="#0BA14B" stroke-width="2"/><path d="M59.5 23a1 1 0 1 0 0 2v-2zm12 2a1 1 0 1 0 0-2v2zm-12 0h12v-2h-12v2zM59.5 27a1 1 0 1 0 0 2v-2zm7.5 2a1 1 0 1 0 0-2v2zm-7.5 0H67v-2h-7.5v2z" fill="#0BA14B"/><path fill-rule="evenodd" clip-rule="evenodd" d="M20.83 40.91H8.07a.64.64 0 0 0-.63.64v12.12c0 .35.28.64.63.64h12.76c.35 0 .64-.29.64-.64V41.55a.64.64 0 0 0-.64-.64zM8.07 39a2.55 2.55 0 0 0-2.55 2.55v12.12c0 1.4 1.15 2.55 2.55 2.55h12.76c1.41 0 2.55-1.14 2.55-2.55V41.55c0-1.4-1.14-2.55-2.55-2.55H8.07z" fill="#0BA14B"/><path fill-rule="evenodd" clip-rule="evenodd" d="M21.86 41.73l-13.6 13.6-1.36-1.35 13.6-13.6 1.36 1.35z" fill="#0BA14B"/><path fill-rule="evenodd" clip-rule="evenodd" d="M20.5 55.34L6.9 41.74l1.36-1.36 13.6 13.6-1.35 1.36z" fill="#0BA14B"/><path d="M1 55a1 1 0 1 0 0 2v-2zm28.5 2a1 1 0 1 0 0-2v2zM1 57h28.5v-2H1v2zM1.5 68a1 1 0 1 0 0 2v-2zm28 2a1 1 0 1 0 0-2v2zm-28 0h28v-2h-28v2z" fill="#0BA14B"/><circle cx="18.5" cy="62.5" r="1.5" fill="#0BA14B"/><circle cx="18.5" cy="62.5" r="6.5" stroke="#0BA14B" stroke-width="2"/></svg>
