<svg viewBox="0 0 81 81" fill="none" xmlns="http://www.w3.org/2000/svg"><path d="M9.26 44.89v-1H8.7l-.29.47.85.53zM42.31 58.3l-.84.55.3.45h.54v-1zm24.78 17.53a1 1 0 1 0 0-2v2zm-8.78-2a1 1 0 1 0 0 2v-2zm-4.13 2a1 1 0 1 0 0-2v2zm-5.16-2a1 1 0 1 0 0 2v-2zm-26.85-40.8a1 1 0 0 0 0 2v-2zm26.33 2a1 1 0 0 0 0-2v2zm4.65-2a1 1 0 1 0 0 2v-2zm5.68 2a1 1 0 0 0 0-2v2zm-36.66 3.17a1 1 0 0 0 0 2v-2zm26.33 2a1 1 0 0 0 0-2v2zm4.65-2a1 1 0 1 0 0 2v-2zm5.68 2a1 1 0 0 0 0-2v2zm-9.3-21.1a1 1 0 0 0 0 2v-2zm9.82 2a1 1 0 1 0 0-2v2zm-16.01 3.16a1 1 0 1 0 0 2v-2zm16 2a1 1 0 1 0 0-2v2zm6.88-24.82l-.78-.63.78.63zM62.29 6l.7-.71-.7.7zm.3-.02l-.79-.63.78.63zm-5.45-4.86l-.67-.74.67.74zm.28 0l-.71.71.7-.7zm-5.95 4.9l.7-.7-.7.7zm.27 0l.68.75-.68-.74zm-5.44-4.9l-.68-.74.68.74zm.27 0l-.7.71.7-.7zm-5.95 4.91l-.67.74.67-.74zm.27 0l.68.74-.68-.74zM24.1 1.14l-.7-.71.7.7zm.28-.01l-.68.74.68-.74zm10.56 0l.71.71-.7-.7zm.28 0l.67-.74-.67.74zm-5.45 4.9l.68-.73-.68.74zm.28 0l.7.7-.7-.7zM1.47 57.55l.85.53-.85-.53zM18.93 6.01l-.74.67.74-.67zm60.64 51.55l-.87.5.87-.5zM14.77 1.4l.75-.67-.75.67zm57.77 44l-.86.5.86-.5zm-.86.5l7.02 12.17 1.73-1-7.02-12.17-1.73 1zm7.45 11.42h-6.88v2h6.88v-2zm-7.88 1V78h2V58.31h-2zM10.26 78V58.31h-2V78h2zm-1-20.69H1.9v2h7.37v-2zm-6.94.77l7.8-12.67-1.71-1.05-7.8 12.67 1.71 1.05zm5.94-13.2v13.43h2V44.9h-2zm64 12.43H42.3v2h29.94v-2zm-29.12.46l-8.77-13.43-1.68 1.1 8.78 13.42 1.67-1.1zM70.25 79H33.53v2h36.72v-2zm-36.72 0H11.26v2h22.27v-2zm1 1V44.89h-2V80h2zM9.26 45.89h5.16v-2H9.26v2zm5.16 0h19.1v-2h-19.1v2zm1-1V1.52h-2V44.9h2zM14.03 2.06l4.16 4.62 1.48-1.34L15.52.72l-1.49 1.34zm5.9 4.66l4.88-4.88L23.39.43 18.51 5.3l1.42 1.41zm3.77-4.85l5.4 4.9 1.35-1.47-5.4-4.91-1.35 1.48zm7.06 4.87l4.9-4.9L34.23.43l-4.9 4.9 1.42 1.4zm3.79-4.87l5.4 4.91L41.3 5.3 35.9.4l-1.35 1.48zm7.02 4.91l5.4-4.91L45.62.39l-5.4 4.91 1.35 1.48zm4.3-4.94l4.89 4.9 1.41-1.42-4.89-4.9-1.41 1.42zm6.55 4.94l5.4-4.91L56.46.39l-5.4 4.9 1.35 1.49zm4.29-4.94l4.87 4.87 1.41-1.41L58.12.43l-1.41 1.41zm6.65 4.77L67 2.07 65.44.82 61.8 5.36l1.56 1.25zM33.53 45.9h33.05v-2H33.53v2zm33.05 0h5.1v-2h-5.1v2zm-1-44.32v43.32h2V1.57h-2zm1.51 72.27h-8.78v2h8.78v-2zm-12.9 0h-5.17v2h5.16v-2zm-32.02-38.8H48.5v-2H22.17v2zm30.98 0h5.68v-2h-5.68v2zm-30.98 5.17H48.5v-2H22.17v2zm30.98 0h5.68v-2h-5.68v2zm-3.61-19.1h9.8v-2h-9.8v2zm-6.2 5.16h16v-2h-16v2zM67 2.07a.8.8 0 0 1-1.42-.5h2a1.2 1.2 0 0 0-2.14-.75L67 2.07zm-5.42 4.64c.5.5 1.34.46 1.78-.1L61.8 5.36A.8.8 0 0 1 63 5.3L61.57 6.7zM57.8 1.87a.8.8 0 0 1-1.1-.03L58.12.43a1.2 1.2 0 0 0-1.65-.04l1.34 1.48zm-7.05 4.87a1.2 1.2 0 0 0 1.66.04L51.07 5.3a.8.8 0 0 1 1.1.02l-1.41 1.42zm-3.8-4.87a.8.8 0 0 1-1.1-.03L47.29.43a1.2 1.2 0 0 0-1.66-.04l1.35 1.48zm-7 4.91a1.2 1.2 0 0 0 1.6 0L40.23 5.3a.8.8 0 0 1 1.08 0l-1.35 1.48zM24.8 1.84a.8.8 0 0 1-1.1.03L25.04.39a1.2 1.2 0 0 0-1.66.04l1.42 1.41zm10.84 0a.8.8 0 0 1-1.1.03L35.89.39a1.2 1.2 0 0 0-1.65.04l1.41 1.41zM8.26 78a3 3 0 0 0 3 3v-2a1 1 0 0 1-1-1h-2zM29.1 6.78c.48.43 1.2.4 1.66-.04l-1.42-1.42a.8.8 0 0 1 1.1-.02L29.1 6.78zM71.25 78a1 1 0 0 1-1 1v2a3 3 0 0 0 3-3h-2zM1.9 57.31c.4 0 .64.43.43.77l-1.7-1.05a1.5 1.5 0 0 0 1.27 2.28v-2zM18.2 6.68a1.2 1.2 0 0 0 1.74.04L18.5 5.31a.8.8 0 0 1 1.16.03L18.2 6.68zM78.7 58.06a.5.5 0 0 1 .43-.75v2a1.5 1.5 0 0 0 1.3-2.25l-1.73 1zM15.42 1.52a.8.8 0 0 1-1.39.54L15.52.72a1.2 1.2 0 0 0-2.1.8h2zM73.41 44.9a2 2 0 0 0-1.73-1v2l1.73-1zM22 19.92h1.58v-6.58c.56-.1 1.14-.19 1.74-.24.6-.07 1.23-.1 1.9-.1.7 0 1.36.06 2 .18.64.12 1.2.34 1.68.66s.86.76 1.14 1.32c.3.56.44 1.28.44 2.16 0 .81-.15 1.5-.44 2.08a3.85 3.85 0 0 1-1.14 1.38c-.47.36-1 .62-1.6.78-.6.16-1.21.24-1.84.24h-.72c-.28-.01-.5-.03-.64-.06v1.16h3.2v1.82h-3.2v2.48h-2.52v-2.48H22V22.9h1.58v-1.16H22v-1.82zm5.44-4.72c-.27 0-.52.01-.76.04-.24.01-.43.03-.58.06v4.52a4.4 4.4 0 0 0 2.06-.04c.33-.1.62-.24.86-.44s.43-.45.56-.76c.15-.32.22-.7.22-1.14 0-.81-.22-1.39-.66-1.72-.44-.35-1-.52-1.7-.52z" fill="#0BA14B"/></svg>
