<svg width="147" height="97" viewBox="0 0 147 97" fill="none" xmlns="http://www.w3.org/2000/svg">
    <path fill-rule="evenodd" clip-rule="evenodd" d="M49.844 76.598a1.5 1.5 0 0 1 1.5-1.5h94.068a1.5 1.5 0 0 1 0 3H51.344a1.5 1.5 0 0 1-1.5-1.5z" fill="#0BA14B"/>
    <path fill-rule="evenodd" clip-rule="evenodd" d="M49.844 95.412a1.5 1.5 0 0 1 1.5-1.5h94.068a1.5 1.5 0 0 1 0 3H51.344a1.5 1.5 0 0 1-1.5-1.5z" fill="#0BA14B"/>
    <path fill-rule="evenodd" clip-rule="evenodd" d="M60.205 93a7.205 7.205 0 1 0 0-14.41 7.205 7.205 0 0 0 0 14.41zm0 3c5.636 0 10.204-4.569 10.204-10.205s-4.568-10.204-10.204-10.204C54.569 75.59 50 80.159 50 85.795 50 91.431 54.569 96 60.205 96z" fill="#0BA14B"/>
    <path d="M62.094 86.173a1.512 1.512 0 1 1-3.023 0 1.512 1.512 0 0 1 3.023 0z" fill="#0BA14B"/>
    <path fill-rule="evenodd" clip-rule="evenodd" d="M98.756 93a7.205 7.205 0 1 0 0-14.41 7.205 7.205 0 0 0 0 14.41zm0 3c5.636 0 10.205-4.569 10.205-10.205s-4.569-10.204-10.205-10.204-10.204 4.568-10.204 10.204C88.552 91.431 93.12 96 98.756 96z" fill="#0BA14B"/>
    <path d="M100.058 86.173a1.512 1.512 0 1 1-3.024 0 1.512 1.512 0 0 1 3.024 0z" fill="#0BA14B"/>
    <path fill-rule="evenodd" clip-rule="evenodd" d="M135.795 93a7.205 7.205 0 1 0 0-14.41 7.205 7.205 0 0 0 0 14.41zm0 3C141.431 96 146 91.431 146 85.795s-4.569-10.204-10.205-10.204-10.204 4.568-10.204 10.204c0 5.636 4.568 10.205 10.204 10.205z" fill="#0BA14B"/>
    <path d="M137.685 86.173a1.512 1.512 0 1 1-3.024 0 1.512 1.512 0 0 1 3.024 0z" fill="#0BA14B"/>
    <path fill-rule="evenodd" clip-rule="evenodd" d="M76.456 58.96H61.338a.756.756 0 0 0-.756.757v14.362c0 .417.339.756.756.756h15.118a.756.756 0 0 0 .756-.756V59.717a.756.756 0 0 0-.756-.756zm-15.118-2.267a3.024 3.024 0 0 0-3.023 3.024v14.362a3.024 3.024 0 0 0 3.023 3.023h15.118a3.024 3.024 0 0 0 3.024-3.023V59.717a3.024 3.024 0 0 0-3.024-3.024H61.338z" fill="#0BA14B"/>
    <path fill-rule="evenodd" clip-rule="evenodd" d="M77.678 59.93L61.552 76.056l-1.604-1.603 16.126-16.126 1.604 1.603z" fill="#0BA14B"/>
    <path fill-rule="evenodd" clip-rule="evenodd" d="M76.074 76.056L59.948 59.93l1.604-1.603 16.126 16.126-1.604 1.603z" fill="#0BA14B"/>
    <path fill-rule="evenodd" clip-rule="evenodd" d="M135.418 39.307h-14.363a.756.756 0 0 0-.756.756v14.362c0 .418.339.756.756.756h14.363a.755.755 0 0 0 .755-.756V40.063a.755.755 0 0 0-.755-.756zm-14.363-2.268a3.023 3.023 0 0 0-3.023 3.024v14.362a3.023 3.023 0 0 0 3.023 3.024h14.363a3.024 3.024 0 0 0 3.023-3.024V40.063a3.024 3.024 0 0 0-3.023-3.024h-14.363z" fill="#0BA14B"/>
    <path fill-rule="evenodd" clip-rule="evenodd" d="M136.807 39.773l-16.126 16.126-1.603-1.604 16.126-16.126 1.603 1.604z" fill="#0BA14B"/>
    <path fill-rule="evenodd" clip-rule="evenodd" d="M135.204 55.899l-16.126-16.126 1.603-1.604 16.126 16.126-1.603 1.604z" fill="#0BA14B"/>
    <path fill-rule="evenodd" clip-rule="evenodd" d="M140.756 3H56c-1.626 0-3 1.36-3 3.047 0 1.688 1.374 3.047 3 3.047h84.756c1.626 0 3-1.36 3-3.047S142.382 3 140.756 3zM56 0c-3.314 0-6 2.734-6 6.047 0 3.314 2.686 6.048 6 6.048h84.756c3.314 0 6-2.734 6-6.048 0-3.313-2.686-6.047-6-6.047H56z" fill="#0BA14B"/>
    <path d="M60.75 2a2 2 0 0 1 2-2h12.127a2 2 0 0 1 2 2v10.782a2 2 0 0 1-2 2H62.75a2 2 0 0 1-2-2V2z" fill="#F9F9F9"/>
    <path fill-rule="evenodd" clip-rule="evenodd" d="M63.75 3v8.782h10.127V3H63.75zm-1-3a2 2 0 0 0-2 2v10.782a2 2 0 0 0 2 2h12.127a2 2 0 0 0 2-2V2a2 2 0 0 0-2-2H62.75z" fill="#0BA14B"/>
    <path d="M70.493 6.887a1.512 1.512 0 1 1-3.023 0 1.512 1.512 0 0 1 3.023 0z" fill="#0BA14B"/>
    <path d="M119.879 2a2 2 0 0 1 2-2h12.126a2 2 0 0 1 2 2v10.782a2 2 0 0 1-2 2h-12.126a2 2 0 0 1-2-2V2z" fill="#F9F9F9"/>
    <path fill-rule="evenodd" clip-rule="evenodd" d="M122.879 3v8.782h10.126V3h-10.126zm-1-3a2 2 0 0 0-2 2v10.782a2 2 0 0 0 2 2h12.126a2 2 0 0 0 2-2V2a2 2 0 0 0-2-2h-12.126z" fill="#0BA14B"/>
    <path d="M129.622 6.887a1.512 1.512 0 1 1-3.024 0 1.512 1.512 0 0 1 3.024 0z" fill="#0BA14B"/>
    <path fill-rule="evenodd" clip-rule="evenodd" d="M67.68 24.189v-10.75h2.267v10.75H67.68z" fill="#0BA14B"/>
    <path fill-rule="evenodd" clip-rule="evenodd" d="M68.813 22.756l14.594 11.277a3.402 3.402 0 0 1 1.322 2.692v12.997a1.134 1.134 0 1 1-2.268 0V36.725c0-.351-.163-.682-.44-.897L68.811 25.622 55.605 35.828c-.278.215-.44.546-.44.897v12.997a1.134 1.134 0 1 1-2.268 0V36.725c0-1.053.488-2.047 1.321-2.692l14.594-11.277z" fill="#0BA14B"/>
    <path fill-rule="evenodd" clip-rule="evenodd" d="M126.811 24.189v-10.75h2.267v10.75h-2.267z" fill="#0BA14B"/>
    <path fill-rule="evenodd" clip-rule="evenodd" d="M127.943 22.756l14.595 11.277a3.403 3.403 0 0 1 1.321 2.692v12.997a1.133 1.133 0 1 1-2.267 0V36.725c0-.351-.163-.682-.441-.897l-13.208-10.206-13.207 10.206a1.134 1.134 0 0 0-.441.897v12.997a1.134 1.134 0 0 1-2.268 0V36.725a3.4 3.4 0 0 1 1.322-2.692l14.594-11.277z" fill="#0BA14B"/>
    <path d="M22.64 51.75h-9.878V14.52C9.152 17.895 4.898 20.39 0 22.008v-8.965c2.578-.844 5.379-2.438 8.402-4.781C11.426 5.895 13.5 3.14 14.625 0h8.016v51.75z" fill="#0BA14B"/>
</svg>
