<svg width="136" height="80" viewBox="0 0 136 80" fill="none" xmlns="http://www.w3.org/2000/svg">
    <path fill-rule="evenodd" clip-rule="evenodd" d="M71.242 44.953l35.805 4.655a4.88 4.88 0 0 1-.495 9.719l-25.686.704a1 1 0 1 1-.055-2l25.686-.703a2.88 2.88 0 0 0 .292-5.736l-35.344-4.596-20.75 7.047a1 1 0 0 1-.642-1.893l21.189-7.197z" fill="#0BA14B"/>
    <path fill-rule="evenodd" clip-rule="evenodd" d="M127.648 46.004a4.894 4.894 0 0 1 5.537 8.06l-31.329 23.578a11.001 11.001 0 0 1-10.093 1.647l-30.271-10.09a3 3 0 0 0-2.256.145l-10.8 5.226-.871-1.8 10.8-5.227a5 5 0 0 1 3.76-.242l30.27 10.09a9 9 0 0 0 8.258-1.347l31.329-23.578a2.893 2.893 0 0 0-3.274-4.766l-26.875 16.797a4 4 0 0 1-4.009.133l-9.545-5.113.944-1.763 9.546 5.114a2 2 0 0 0 2.004-.067l26.875-16.797z" fill="#0BA14B"/>
    <path fill-rule="evenodd" clip-rule="evenodd" d="M122.89 47.645a5.002 5.002 0 0 0-5.2-.95l-11.559 4.562-.735-1.86 11.56-4.563a7 7 0 0 1 7.279 1.331l1.588 1.444-1.346 1.48-1.587-1.444z" fill="#0BA14B"/>
    <path d="M88 17.823h1.508v-6.488a16.327 16.327 0 0 1 1.66-.236A15.917 15.917 0 0 1 92.98 11c.662 0 1.298.06 1.908.178.611.118 1.145.335 1.603.65.458.316.821.75 1.088 1.302.28.552.42 1.261.42 2.13 0 .801-.14 1.485-.42 2.05a3.766 3.766 0 0 1-1.088 1.36 4.216 4.216 0 0 1-1.526.77 6.577 6.577 0 0 1-1.756.236h-.687a4.846 4.846 0 0 1-.61-.06v1.145h3.053v1.794h-3.054V25h-2.404v-2.445H88V20.76h1.508v-1.144H88v-1.794zm5.19-4.654c-.254 0-.495.013-.724.04a4.515 4.515 0 0 0-.554.059v4.456c.102.026.267.052.496.079.23.013.395.02.497.02.343 0 .668-.047.973-.139.318-.091.591-.236.82-.433.23-.198.408-.447.535-.75.14-.315.21-.69.21-1.124 0-.801-.21-1.367-.63-1.695-.42-.342-.96-.513-1.622-.513z" fill="#0BA14B"/>
    <path fill-rule="evenodd" clip-rule="evenodd" d="M93 34c8.837 0 16-7.163 16-16S101.837 2 93 2 77 9.163 77 18s7.163 16 16 16zm0 2c9.941 0 18-8.059 18-18S102.941 0 93 0 75 8.059 75 18s8.059 18 18 18z" fill="#0BA14B"/>
    <path d="M83 18a1 1 0 1 1-2 0 1 1 0 0 1 2 0z" fill="#0BA14B"/>
    <path d="M105 18a1 1 0 1 1-2 0 1 1 0 0 1 2 0z" fill="#0BA14B"/>
    <path d="M0 38.074l9.563-1.16c.304 2.438 1.124 4.3 2.46 5.59 1.336 1.289 2.954 1.934 4.852 1.934 2.04 0 3.75-.774 5.133-2.32 1.406-1.548 2.11-3.634 2.11-6.259 0-2.484-.669-4.453-2.005-5.906-1.336-1.453-2.965-2.18-4.886-2.18-1.266 0-2.778.247-4.536.739l1.09-8.051c2.672.07 4.711-.504 6.117-1.723 1.407-1.242 2.11-2.883 2.11-4.922 0-1.734-.516-3.117-1.547-4.148-1.031-1.031-2.402-1.547-4.113-1.547-1.688 0-3.13.586-4.325 1.758-1.195 1.172-1.921 2.883-2.18 5.133L.739 13.465c.633-3.117 1.582-5.602 2.848-7.453 1.289-1.875 3.07-3.34 5.344-4.395C11.227.54 13.793 0 16.629 0 21.48 0 25.37 1.547 28.3 4.64c2.414 2.532 3.62 5.391 3.62 8.579 0 4.523-2.472 8.133-7.417 10.828 2.953.633 5.308 2.05 7.066 4.254 1.782 2.203 2.672 4.863 2.672 7.98 0 4.524-1.652 8.38-4.957 11.567-3.305 3.187-7.418 4.78-12.34 4.78-4.664 0-8.53-1.335-11.601-4.007C2.274 45.926.492 42.411 0 38.074z" fill="#0BA14B"/>
</svg>
