<svg width="145" height="96" viewBox="0 0 145 96" fill="none" xmlns="http://www.w3.org/2000/svg">
    <path fill-rule="evenodd" clip-rule="evenodd" d="M139.667 3H54.333a2.333 2.333 0 0 0 0 4.667h85.334a2.333 2.333 0 0 0 0-4.667zM54.333 0a5.333 5.333 0 0 0 0 10.667h85.334a5.333 5.333 0 0 0 0-10.667H54.333z" fill="#0BA14B"/>
    <path fill-rule="evenodd" clip-rule="evenodd" d="M68.5 63v10.5H142V63H68.5zm-1-3a2 2 0 0 0-2 2v12.5a2 2 0 0 0 2 2H145V62a2 2 0 0 0-2-2H67.5z" fill="#0BA14B"/>
    <path fill-rule="evenodd" clip-rule="evenodd" d="M64.75 73.5V23.625a4.875 4.875 0 1 0-9.75 0V73.5h9.75zm-4.875-57.75A7.875 7.875 0 0 0 52 23.625V74.5a2 2 0 0 0 2 2h13.75V23.625a7.875 7.875 0 0 0-7.875-7.875z" fill="#0BA14B"/>
    <path fill-rule="evenodd" clip-rule="evenodd" d="M52 77.25V92a1 1 0 0 0 1 1h88a1 1 0 0 0 1-1V77.25H52zm-1-3a2 2 0 0 0-2 2V92a4 4 0 0 0 4 4h88a4 4 0 0 0 4-4V74.25H51z" fill="#0BA14B"/>
    <path fill-rule="evenodd" clip-rule="evenodd" d="M68.833 94.667v-20h3v20h-3z" fill="#0BA14B"/>
    <path fill-rule="evenodd" clip-rule="evenodd" d="M60.333 86.333a1.667 1.667 0 1 0 0-3.333 1.667 1.667 0 0 0 0 3.333zm0 3a4.667 4.667 0 1 0 0-9.333 4.667 4.667 0 0 0 0 9.333z" fill="#0BA14B"/>
    <path d="M119.667 81.333a1.334 1.334 0 1 1-2.667 0 1.334 1.334 0 0 1 2.667 0z" fill="#0BA14B"/>
    <path d="M75.667 68A1.333 1.333 0 1 1 73 68a1.333 1.333 0 0 1 2.667 0z" fill="#0BA14B"/>
    <path d="M87.667 68A1.333 1.333 0 1 1 85 68a1.333 1.333 0 0 1 2.667 0z" fill="#0BA14B"/>
    <path d="M99.667 68A1.333 1.333 0 1 1 97 68a1.333 1.333 0 0 1 2.667 0z" fill="#0BA14B"/>
    <path d="M111.667 68A1.333 1.333 0 1 1 109 68a1.333 1.333 0 0 1 2.667 0z" fill="#0BA14B"/>
    <path d="M123.667 68A1.333 1.333 0 1 1 121 68a1.333 1.333 0 0 1 2.667 0z" fill="#0BA14B"/>
    <path d="M135.667 68A1.333 1.333 0 1 1 133 68a1.333 1.333 0 0 1 2.667 0z" fill="#0BA14B"/>
    <path fill-rule="evenodd" clip-rule="evenodd" d="M122.167 81.333a1.5 1.5 0 0 1 1.5-1.5h20v3h-20a1.5 1.5 0 0 1-1.5-1.5z" fill="#0BA14B"/>
    <path fill-rule="evenodd" clip-rule="evenodd" d="M59.875 28.5a4.875 4.875 0 1 0 0-9.75 4.875 4.875 0 0 0 0 9.75zm0 3a7.875 7.875 0 1 0 0-15.75 7.875 7.875 0 0 0 0 15.75z" fill="#0BA14B"/>
    <path d="M61.333 24.167a1.5 1.5 0 1 1-3 0 1.5 1.5 0 0 1 3 0z" fill="#0BA14B"/>
    <path fill-rule="evenodd" clip-rule="evenodd" d="M129 22a5 5 0 1 0 0-10 5 5 0 0 0 0 10zm0 3a8 8 0 1 0 0-16 8 8 0 0 0 0 16z" fill="#0BA14B"/>
    <path fill-rule="evenodd" clip-rule="evenodd" d="M97 5.167a1.5 1.5 0 0 1 1.5 1.5v14.666h-3V6.667a1.5 1.5 0 0 1 1.5-1.5z" fill="#0BA14B"/>
    <path fill-rule="evenodd" clip-rule="evenodd" d="M123.5 36V22.083h3V36a2.5 2.5 0 1 0 5 0V22.083h3V36a5.5 5.5 0 1 1-11 0z" fill="#0BA14B"/>
    <path fill-rule="evenodd" clip-rule="evenodd" d="M132.08 40.374l-10.875 11.283a5.464 5.464 0 1 1-7.797-7.654l10.397-10.397 2.122 2.121-10.397 10.397a2.463 2.463 0 1 0 3.515 3.451l10.875-11.283 2.16 2.082z" fill="#0BA14B"/>
    <path fill-rule="evenodd" clip-rule="evenodd" d="M115.394 51.727l-4 4a1.5 1.5 0 1 1-2.121-2.121l4-4 2.121 2.121z" fill="#0BA14B"/>
    <path fill-rule="evenodd" clip-rule="evenodd" d="M85.5 41.953L63.937 20.309l2.126-2.118L88.5 40.714v10.12h-9.432L65.3 37.753l2.067-2.175 12.899 12.254H85.5v-5.88z" fill="#0BA14B"/>
    <path fill-rule="evenodd" clip-rule="evenodd" d="M90.606 55.06l-4.666-4.666 2.12-2.121 4.667 4.666a1.5 1.5 0 0 1-2.12 2.122z" fill="#0BA14B"/>
    <path d="M130.75 17.25a1.5 1.5 0 1 1-3 0 1.5 1.5 0 0 1 3 0z" fill="#0BA14B"/>
    <path fill-rule="evenodd" clip-rule="evenodd" d="M97 17.879l6.833 6.833v5.91l-3.106 3.105a1.5 1.5 0 1 1-2.121-2.121l2.227-2.227v-3.424L97 22.12l-3.834 3.834v3.424l2.228 2.227a1.5 1.5 0 1 1-2.122 2.121l-3.106-3.106v-5.909L97 17.879z" fill="#0BA14B"/>
    <path d="M34.629 42.574v9.176H0c.375-3.469 1.5-6.75 3.375-9.844 1.875-3.117 5.578-7.242 11.11-12.375 4.453-4.148 7.183-6.96 8.19-8.437 1.36-2.04 2.04-4.055 2.04-6.047 0-2.203-.598-3.89-1.793-5.063-1.172-1.195-2.8-1.793-4.887-1.793-2.062 0-3.703.621-4.922 1.864-1.218 1.242-1.922 3.304-2.11 6.187l-9.843-.984C1.746 9.82 3.586 5.918 6.68 3.55 9.773 1.184 13.64 0 18.28 0c5.086 0 9.082 1.371 11.989 4.113 2.906 2.742 4.359 6.153 4.359 10.23 0 2.321-.422 4.536-1.266 6.645-.82 2.086-2.133 4.278-3.937 6.575-1.195 1.523-3.352 3.714-6.469 6.574-3.117 2.86-5.098 4.758-5.941 5.695-.82.938-1.489 1.852-2.004 2.742h19.617z" fill="#0BA14B"/>
</svg>
