<svg width="133" height="80" viewBox="0 0 133 80" fill="none" xmlns="http://www.w3.org/2000/svg">
    <path fill-rule="evenodd" clip-rule="evenodd" d="M53 58a3 3 0 0 0-3 3v16a1 1 0 0 0 1 1h8.039a1 1 0 0 0 .78-.375l2.8-3.5A3 3 0 0 1 64.96 73h51.078c.911 0 1.773.414 2.342 1.126l2.799 3.499a1 1 0 0 0 .781.375H130a1 1 0 0 0 1-1V61a3 3 0 0 0-3-3H53zm-5 3a5 5 0 0 1 5-5h75a5 5 0 0 1 5 5v16a3 3 0 0 1-3 3h-8.039a2.999 2.999 0 0 1-2.342-1.126l-2.799-3.499a1 1 0 0 0-.781-.375H64.961a1 1 0 0 0-.78.375l-2.8 3.5A3 3 0 0 1 59.04 80H51a3 3 0 0 1-3-3V61z" fill="#0BA14B"/>
    <path fill-rule="evenodd" clip-rule="evenodd" d="M60 66a4 4 0 0 1 4-4h53a4 4 0 0 1 0 8H64a4 4 0 0 1-4-4zm4-2a2 2 0 1 0 0 4h53a2 2 0 1 0 0-4H64z" fill="#0BA14B"/>
    <path fill-rule="evenodd" clip-rule="evenodd" d="M56 25a1 1 0 0 0-1 1v30h39.5V26a1 1 0 0 0-1-1H56zm-3 1a3 3 0 0 1 3-3h37.5a3 3 0 0 1 3 3v32H53V26z" fill="#0BA14B"/>
    <path fill-rule="evenodd" clip-rule="evenodd" d="M69 2a1 1 0 0 0-1 1v20h20V3a1 1 0 0 0-1-1H69zm-3 1a3 3 0 0 1 3-3h18a3 3 0 0 1 3 3v22H66V3z" fill="#0BA14B"/>
    <path fill-rule="evenodd" clip-rule="evenodd" d="M84 32H66v5h18v-5zm-20-2v9h22v-9H64z" fill="#0BA14B"/>
    <path fill-rule="evenodd" clip-rule="evenodd" d="M60 50a1 1 0 1 0 2 0 1 1 0 0 0-2 0zm1-3a3 3 0 1 0 0 6 3 3 0 0 0 0-6z" fill="#0BA14B"/>
    <path fill-rule="evenodd" clip-rule="evenodd" d="M79 46a1 1 0 0 1 1-1h8a1 1 0 1 1 0 2h-8a1 1 0 0 1-1-1z" fill="#0BA14B"/>
    <path fill-rule="evenodd" clip-rule="evenodd" d="M79 51a1 1 0 0 1 1-1h11a1 1 0 1 1 0 2H80a1 1 0 0 1-1-1z" fill="#0BA14B"/>
    <path fill-rule="evenodd" clip-rule="evenodd" d="M102 15a1 1 0 0 0-1 1v40h26V16a1 1 0 0 0-1-1h-24zm-3 1a3 3 0 0 1 3-3h24a3 3 0 0 1 3 3v42H99V16z" fill="#0BA14B"/>
    <path fill-rule="evenodd" clip-rule="evenodd" d="M121 21h-14v3h14v-3zm-16-2v7h18v-7h-18z" fill="#0BA14B"/>
    <path fill-rule="evenodd" clip-rule="evenodd" d="M106 50a1 1 0 1 0 2 0 1 1 0 0 0-2 0zm1-3a3 3 0 1 0 0 6 3 3 0 0 0 0-6z" fill="#0BA14B"/>
    <path fill-rule="evenodd" clip-rule="evenodd" d="M112 46a1 1 0 0 1 1-1h8a1 1 0 0 1 0 2h-8a1 1 0 0 1-1-1z" fill="#0BA14B"/>
    <path fill-rule="evenodd" clip-rule="evenodd" d="M112 51a1 1 0 0 1 1-1h11a1 1 0 0 1 0 2h-11a1 1 0 0 1-1-1z" fill="#0BA14B"/>
    <path fill-rule="evenodd" clip-rule="evenodd" d="M89 7H67V5h22v2z" fill="#0BA14B"/>
    <path fill-rule="evenodd" clip-rule="evenodd" d="M77 10V1h2v9a1 1 0 1 1-2 0z" fill="#0BA14B"/>
    <path d="M21.094 51.75V41.379H0V32.73L22.36 0h8.296v32.695h6.399v8.684h-6.399V51.75h-9.562zm0-19.055V15.082L9.246 32.695h11.848z" fill="#0BA14B"/>
</svg>
