<svg width="127" height="80" viewBox="0 0 127 80" fill="none" xmlns="http://www.w3.org/2000/svg">
    <path d="M0 37.582l9.844-1.02c.281 2.227 1.113 3.997 2.496 5.31 1.383 1.288 2.976 1.933 4.781 1.933 2.063 0 3.809-.832 5.238-2.496 1.43-1.688 2.145-4.22 2.145-7.594 0-3.164-.715-5.531-2.145-7.102-1.406-1.593-3.246-2.39-5.52-2.39-2.835 0-5.378 1.254-7.628 3.761l-8.016-1.16L6.258 0h26.12v9.246H13.747L12.2 18c2.203-1.102 4.453-1.652 6.75-1.652 4.383 0 8.098 1.593 11.145 4.78 3.047 3.188 4.57 7.325 4.57 12.411 0 4.242-1.23 8.027-3.691 11.355-3.352 4.547-8.004 6.82-13.957 6.82-4.758 0-8.637-1.276-11.637-3.831-3-2.555-4.793-5.989-5.379-10.301z" fill="#0BA14B"/>
    <path fill-rule="evenodd" clip-rule="evenodd" d="M115.009 12.954c.664-1.718.991-3.09.991-3.954a7 7 0 1 0-14 0c0 .84.343 2.194 1.047 3.92.681 1.668 1.618 3.487 2.614 5.18.997 1.693 2.025 3.211 2.87 4.282.207.263.395.488.562.676.177-.188.379-.419.602-.695.851-1.051 1.854-2.552 2.818-4.24.961-1.685 1.852-3.5 2.496-5.169zM109 25.5c2 0 9-11.53 9-16.5a9 9 0 0 0-9-9 9 9 0 0 0-9 9c0 4.97 7.5 16.5 9 16.5z" fill="#0BA14B"/>
    <path fill-rule="evenodd" clip-rule="evenodd" d="M109 10a1 1 0 1 0 0-2 1 1 0 0 0 0 2zm0 2a3 3 0 1 0 0-6 3 3 0 0 0 0 6z" fill="#0BA14B"/>
    <path fill-rule="evenodd" clip-rule="evenodd" d="M53.553 40.658A3 3 0 0 1 56.236 39h21.615a3 3 0 0 1 2.592 1.488L86.59 51.03A3 3 0 0 1 87 52.541V75a5 5 0 0 1-5 5H53a5 5 0 0 1-5-5V52.472a3 3 0 0 1 .317-1.342l5.236-10.472zm2.683.342a1 1 0 0 0-.894.553l-5.236 10.472a1 1 0 0 0-.106.447V75a3 3 0 0 0 3 3h29a3 3 0 0 0 3-3V52.54a1 1 0 0 0-.136-.503l-6.149-10.54a1 1 0 0 0-.864-.497H56.236z" fill="#0BA14B"/>
    <path fill-rule="evenodd" clip-rule="evenodd" d="M86 53H49v-2h37v2z" fill="#0BA14B"/>
    <path fill-rule="evenodd" clip-rule="evenodd" d="M69.949 39.684L74 51.838V58a3 3 0 0 1-3 3h-7a3 3 0 0 1-3-3v-6.123l3.03-12.12 1.94.486L63 52.123V58a1 1 0 0 0 1 1h7a1 1 0 0 0 1-1v-5.838l-3.949-11.846 1.898-.632z" fill="#0BA14B"/>
    <path fill-rule="evenodd" clip-rule="evenodd" d="M79.5 26c-.476 0-.928.095-1.34.265l-.766-1.847A5.486 5.486 0 0 1 79.5 24h1.875v2H79.5zm9.375 0h-3.75v-2h3.75v2zm7.5 0h-3.75v-2h3.75v2zM102 26h-1.875v-2H102a1 1 0 0 1 0 2zm-25.735 2.16c-.17.412-.265.864-.265 1.34 0 .476.095.928.265 1.34l-1.847.766A5.486 5.486 0 0 1 74 29.5c0-.744.148-1.456.418-2.106l1.847.767zm1.895 4.575c.412.17.864.265 1.34.265h2v2h-2a5.486 5.486 0 0 1-2.106-.418l.766-1.847zM85.5 33h4v2h-4v-2zm8 0h4v2h-4v-2zm8 0h2c.777 0 1.545.038 2.303.111l-.194 1.991A21.758 21.758 0 0 0 103.5 35h-2v-2zm8.824 1.006a23.343 23.343 0 0 1 4.256 1.765l-.944 1.763a21.364 21.364 0 0 0-3.892-1.614l.58-1.914zm8.085 4.328a23.64 23.64 0 0 1 3.257 3.257l-1.545 1.27a21.583 21.583 0 0 0-2.982-2.982l1.27-1.545zm5.82 7.085a23.39 23.39 0 0 1 1.765 4.257l-1.914.58a21.402 21.402 0 0 0-1.614-3.892l1.763-.944zm2.66 8.778a24.02 24.02 0 0 1 0 4.606l-1.991-.194a21.937 21.937 0 0 0 0-4.218l1.991-.194zm-.895 9.127a23.39 23.39 0 0 1-1.765 4.257l-1.763-.945a21.402 21.402 0 0 0 1.614-3.892l1.914.58zm-4.328 8.085a23.64 23.64 0 0 1-3.257 3.257l-1.27-1.545a21.583 21.583 0 0 0 2.982-2.982l1.545 1.27zm-7.086 5.82a23.343 23.343 0 0 1-4.256 1.765l-.58-1.914a21.364 21.364 0 0 0 3.892-1.614l.944 1.763zm-8.777 2.66c-.758.073-1.526.111-2.303.111h-1.562v-2h1.562c.712 0 1.416-.035 2.109-.102l.194 1.99zM90 79a1 1 0 0 1 1-1h1.563v2H91a1 1 0 0 1-1-1zm8.813 1h-3.126v-2h3.126v2z" fill="#0BA14B"/>
</svg>
