<svg width="81" height="82" viewBox="0 0 81 82" fill="none" xmlns="http://www.w3.org/2000/svg">
<path d="M47.9565 35.3623V5.73914C47.9565 3.53 46.1657 1.73914 43.9565 1.73914H5C2.79086 1.73914 1 3.53 1 5.73914V55.7102C1 57.9193 2.79086 59.7102 5 59.7102H39.8406" stroke="#A01E25" stroke-width="2"/>
<path d="M29.9855 5.95654C29.4332 5.95654 28.9855 6.40426 28.9855 6.95654C28.9855 7.50883 29.4332 7.95654 29.9855 7.95654V5.95654ZM29.9855 7.95654H58.971V5.95654H29.9855V7.95654Z" fill="#A01E25"/>
<rect x="59.3914" y="1" width="15.3913" height="15.3913" rx="1" stroke="#A01E25" stroke-width="2"/>
<path d="M63.0289 16.2319V21.4493L67.0869 24.9276L71.1449 21.4493V16.2319" stroke="#A01E25" stroke-width="2"/>
<path d="M67.087 24.9275V27.5652C67.087 28.6697 66.1916 29.5652 65.087 29.5652H61.5508C60.4462 29.5652 59.5508 30.4606 59.5508 31.5652V34.7826" stroke="#A01E25" stroke-width="2"/>
<path d="M9.11597 22.029L24.1884 13.3334L39.2609 22.029V38.8406L24.1884 48.116L9.11597 38.8406V22.029Z" stroke="#A01E25" stroke-width="2"/>
<path d="M39.8406 45.7971L59.5507 34.2029L79.2609 45.7971V67.8261L59.5507 80L39.8406 67.8261V45.7971Z" stroke="#A01E25" stroke-width="2"/>
<path d="M40.4203 45.7971L59.5507 57.3913V80" stroke="#A01E25" stroke-width="2"/>
<path d="M79.2608 7.95654C79.8131 7.95654 80.2608 7.50883 80.2608 6.95654C80.2608 6.40426 79.8131 5.95654 79.2608 5.95654V7.95654ZM74.6232 7.95654H79.2608V5.95654H74.6232V7.95654Z" fill="#A01E25"/>
<circle cx="23.6086" cy="6.95654" r="1.15942" fill="#A01E25"/>
<circle cx="68.826" cy="51.0145" r="1.15942" fill="#A01E25"/>
<path d="M59.5508 57.3913L63.6088 54.4928" stroke="#A01E25" stroke-width="2" stroke-linecap="round"/>
<path d="M73.4637 48.6957L78.6811 45.7971" stroke="#A01E25" stroke-width="2" stroke-linecap="round"/>
<path d="M9.11597 22.0289L24.1884 30.1449L38.6812 22.0289" stroke="#A01E25" stroke-width="2"/>
<path d="M24.1884 30.1449V48.1159" stroke="#A01E25" stroke-width="2"/>
</svg>
