<svg width="73" height="82" viewBox="0 0 73 82" fill="none" xmlns="http://www.w3.org/2000/svg">
<path d="M9.82353 19.8235L8.98396 19.2803L8.82353 19.5282V19.8235H9.82353ZM62.7647 19.8235H63.7647V19.5282L63.6043 19.2803L62.7647 19.8235ZM41 47.4706L40.2929 48.1777L40.5858 48.4706H41V47.4706ZM46.2941 47.4706V48.4706H46.7083L47.0012 48.1777L46.2941 47.4706ZM62.7647 69.6471C63.317 69.6471 63.7647 69.1993 63.7647 68.6471C63.7647 68.0948 63.317 67.6471 62.7647 67.6471V69.6471ZM44.5294 67.6471C43.9771 67.6471 43.5294 68.0948 43.5294 68.6471C43.5294 69.1993 43.9771 69.6471 44.5294 69.6471V67.6471ZM42.9412 38.6471C42.9412 39.1993 43.3889 39.6471 43.9412 39.6471C44.4935 39.6471 44.9412 39.1993 44.9412 38.6471H42.9412ZM49.281 44.4837L48.5739 43.7766L49.281 44.4837ZM57.4763 11.6505L56.6367 12.1938L57.4763 11.6505ZM15.1119 11.6505L14.2724 11.1073L15.1119 11.6505ZM62.1652 2.94202L63.0227 2.42752L62.1652 2.94202ZM38.0539 44.5245L38.761 43.8174L38.0539 44.5245ZM71.0182 17.697L70.1607 18.2115L71.0182 17.697ZM1.57003 17.697L0.712534 17.1825L1.57003 17.697ZM0 19.755V70.4118H2V19.755H0ZM72.5882 69.9412V19.755H70.5882V69.9412H72.5882ZM71.8757 17.1825L63.0227 2.42752L61.3077 3.45651L70.1607 18.2115L71.8757 17.1825ZM58.7352 0H13.853V2H58.7352V0ZM9.56553 2.42752L0.712534 17.1825L2.42752 18.2115L11.2805 3.45651L9.56553 2.42752ZM3.52941 73.9412V79H5.52941V73.9412H3.52941ZM6.52941 82H16.0588V80H6.52941V82ZM4.52941 74.9412H18.0588V72.9412H4.52941V74.9412ZM19.0588 79V73.9412H17.0588V79H19.0588ZM65.1176 74.9412H67.5882V72.9412H65.1176V74.9412ZM64.1176 73.9412V79H66.1176V73.9412H64.1176ZM63.1176 80H53.5882V82H63.1176V80ZM18.0588 74.9412H51.5882V72.9412H18.0588V74.9412ZM51.5882 74.9412H65.1176V72.9412H51.5882V74.9412ZM52.5882 79V73.9412H50.5882V79H52.5882ZM10.6631 20.3668L15.9515 12.1938L14.2724 11.1073L8.98396 19.2803L10.6631 20.3668ZM18.4702 10.8235H54.118V8.82353H18.4702V10.8235ZM56.6367 12.1938L61.9251 20.3668L63.6043 19.2803L58.3159 11.1073L56.6367 12.1938ZM58.7647 61.1765H13.8235V63.1765H58.7647V61.1765ZM10.8235 25.7059V19.8235H8.82353V25.7059H10.8235ZM61.7647 19.8235V25.7059H63.7647V19.8235H61.7647ZM61.7647 25.7059V55.1176H63.7647V25.7059H61.7647ZM61.7647 55.1176V58.1765H63.7647V55.1176H61.7647ZM10.8235 58.1765V55.1176H8.82353V58.1765H10.8235ZM10.8235 55.1176V25.7059H8.82353V55.1176H10.8235ZM26.8824 54.1176H9.82353V56.1176H26.8824V54.1176ZM27.8824 55.1176V45.3529H25.8824V55.1176H27.8824ZM28.8824 44.3529H35.2255V42.3529H28.8824V44.3529ZM37.3468 45.2316L40.2929 48.1777L41.7071 46.7635L38.761 43.8174L37.3468 45.2316ZM41 48.4706H46.2941V46.4706H41V48.4706ZM47.0012 48.1777L49.9881 45.1908L48.5739 43.7766L45.587 46.7635L47.0012 48.1777ZM62.7647 54.1176H53.9412V56.1176H62.7647V54.1176ZM53.9412 54.1176H26.8824V56.1176H53.9412V54.1176ZM52.9412 45.2832V55.1176H54.9412V45.2832H52.9412ZM62.7647 67.6471H44.5294V69.6471H62.7647V67.6471ZM28.8235 68.2941V68.4118H30.8235V68.2941H28.8235ZM27.8235 69.4118H16.5294V71.4118H27.8235V69.4118ZM15.5294 68.4118V68.2941H13.5294V68.4118H15.5294ZM16.5294 67.2941H27.8235V65.2941H16.5294V67.2941ZM40.4118 16.4706H39.6471V18.4706H40.4118V16.4706ZM41.4118 17.4706V16.5882H39.4118V17.4706H41.4118ZM48.2353 16.4706H46.8824V18.4706H48.2353V16.4706ZM46.8824 16.4706H40.4118V18.4706H46.8824V16.4706ZM45.8824 16.5882V17.4706H47.8824V16.5882H45.8824ZM47.4706 31.4118H48.2353V29.4118H47.4706V31.4118ZM46.4706 30.4118V32.9412H48.4706V30.4118H46.4706ZM39.6471 31.4118H40.4118V29.4118H39.6471V31.4118ZM40.4118 31.4118H47.4706V29.4118H40.4118V31.4118ZM41.4118 32.9412V30.4118H39.4118V32.9412H41.4118ZM46.4706 32.9412H43.9412V34.9412H46.4706V32.9412ZM43.9412 32.9412H41.4118V34.9412H43.9412V32.9412ZM42.9412 33.9412V38.6471H44.9412V33.9412H42.9412ZM50.2353 29.4118V25.7059H48.2353V29.4118H50.2353ZM49.2353 26.7059H62.7647V24.7059H49.2353V26.7059ZM50.2353 25.7059V19.8235H48.2353V25.7059H50.2353ZM50.2353 19.8235V18.4706H48.2353V19.8235H50.2353ZM62.7647 18.8235H49.2353V20.8235H62.7647V18.8235ZM37.6471 18.4706V19.8235H39.6471V18.4706H37.6471ZM38.6471 18.8235H9.82353V20.8235H38.6471V18.8235ZM37.6471 19.8235V25.7059H39.6471V19.8235H37.6471ZM37.6471 25.7059V29.4118H39.6471V25.7059H37.6471ZM9.82353 26.7059H38.6471V24.7059H9.82353V26.7059ZM43.6471 14.3529C44.8816 14.3529 45.8824 15.3537 45.8824 16.5882H47.8824C47.8824 14.2491 45.9861 12.3529 43.6471 12.3529V14.3529ZM41.4118 16.5882C41.4118 15.3537 42.4125 14.3529 43.6471 14.3529V12.3529C41.308 12.3529 39.4118 14.2491 39.4118 16.5882H41.4118ZM48.2353 18.4706H50.2353C50.2353 17.366 49.3399 16.4706 48.2353 16.4706V18.4706ZM48.2353 31.4118C49.3399 31.4118 50.2353 30.5163 50.2353 29.4118H48.2353V31.4118ZM39.6471 29.4118H37.6471C37.6471 30.5163 38.5425 31.4118 39.6471 31.4118V29.4118ZM15.5294 68.2941C15.5294 67.7418 15.9771 67.2941 16.5294 67.2941V65.2941C14.8726 65.2941 13.5294 66.6373 13.5294 68.2941H15.5294ZM16.5294 69.4118C15.9771 69.4118 15.5294 68.9641 15.5294 68.4118H13.5294C13.5294 70.0686 14.8726 71.4118 16.5294 71.4118V69.4118ZM49.9881 45.1908C50.5246 44.6543 51.2522 44.3529 52.0109 44.3529V42.3529C50.7218 42.3529 49.4855 42.865 48.5739 43.7766L49.9881 45.1908ZM13.8235 61.1765C12.1667 61.1765 10.8235 59.8333 10.8235 58.1765H8.82353C8.82353 60.9379 11.0621 63.1765 13.8235 63.1765V61.1765ZM58.7647 63.1765C61.5261 63.1765 63.7647 60.9379 63.7647 58.1765H61.7647C61.7647 59.8333 60.4216 61.1765 58.7647 61.1765V63.1765ZM54.118 10.8235C55.1356 10.8235 56.0839 11.3394 56.6367 12.1938L58.3159 11.1073C57.3945 9.68332 55.8141 8.82353 54.118 8.82353V10.8235ZM16.0588 82C17.7157 82 19.0588 80.6569 19.0588 79H17.0588C17.0588 79.5523 16.6111 80 16.0588 80V82ZM52.0109 44.3529C52.5247 44.3529 52.9412 44.7695 52.9412 45.2832H54.9412C54.9412 43.6649 53.6292 42.3529 52.0109 42.3529V44.3529ZM3.52941 79C3.52941 80.6569 4.87256 82 6.52941 82V80C5.97713 80 5.52941 79.5523 5.52941 79H3.52941ZM13.853 0C12.0967 0 10.4691 0.921494 9.56553 2.42752L11.2805 3.45651C11.8227 2.5529 12.7992 2 13.853 2V0ZM39.6471 16.4706C38.5425 16.4706 37.6471 17.366 37.6471 18.4706H39.6471V16.4706ZM15.9515 12.1938C16.5043 11.3394 17.4526 10.8235 18.4702 10.8235V8.82353C16.7742 8.82353 15.1938 9.68332 14.2724 11.1073L15.9515 12.1938ZM63.0227 2.42752C62.1191 0.921493 60.4916 0 58.7352 0V2C59.789 2 60.7655 2.5529 61.3077 3.45651L63.0227 2.42752ZM35.2255 44.3529C36.0211 44.3529 36.7842 44.669 37.3468 45.2316L38.761 43.8174C37.8233 42.8797 36.5516 42.3529 35.2255 42.3529V44.3529ZM72.5882 19.755C72.5882 18.8488 72.3419 17.9596 71.8757 17.1825L70.1607 18.2115C70.4405 18.6778 70.5882 19.2113 70.5882 19.755H72.5882ZM27.8824 45.3529C27.8824 44.8007 28.3301 44.3529 28.8824 44.3529V42.3529C27.2255 42.3529 25.8824 43.6961 25.8824 45.3529H27.8824ZM70.5882 69.9412C70.5882 71.598 69.2451 72.9412 67.5882 72.9412V74.9412C70.3497 74.9412 72.5882 72.7026 72.5882 69.9412H70.5882ZM28.8235 68.4118C28.8235 68.9641 28.3758 69.4118 27.8235 69.4118V71.4118C29.4804 71.4118 30.8235 70.0686 30.8235 68.4118H28.8235ZM53.5882 80C53.0359 80 52.5882 79.5523 52.5882 79H50.5882C50.5882 80.6569 51.9314 82 53.5882 82V80ZM39.4118 32.9412C39.4118 34.0457 40.3072 34.9412 41.4118 34.9412V32.9412H39.4118ZM0 70.4118C0 72.9133 2.02789 74.9412 4.52941 74.9412V72.9412C3.13246 72.9412 2 71.8087 2 70.4118H0ZM30.8235 68.2941C30.8235 66.6373 29.4804 65.2941 27.8235 65.2941V67.2941C28.3758 67.2941 28.8235 67.7418 28.8235 68.2941H30.8235ZM64.1176 79C64.1176 79.5523 63.6699 80 63.1176 80V82C64.7745 82 66.1176 80.6569 66.1176 79H64.1176ZM46.4706 32.9412V34.9412C47.5752 34.9412 48.4706 34.0457 48.4706 32.9412H46.4706ZM2 19.755C2 19.2113 2.14777 18.6778 2.42752 18.2115L0.712534 17.1825C0.246288 17.9596 0 18.8488 0 19.755H2Z" fill="#0BA14B"/>
</svg>
