<svg width="178" height="48" viewBox="0 0 178 48" fill="none" xmlns="http://www.w3.org/2000/svg">
<path d="M91.4261 18.3483H83.5925C83.4874 18.3483 83.3822 18.4534 83.3822 18.5586C83.3822 24.0263 83.1194 27.4962 81.5422 27.4962C81.437 27.4962 81.2793 27.4962 81.1741 27.4962C81.0164 27.4962 80.9113 27.6013 80.9638 27.759L81.2267 29.494C81.2267 29.5991 81.3319 29.6517 81.437 29.7043C81.7524 29.7568 82.2256 29.8094 82.4885 29.8094C85.3275 29.8094 85.9584 25.9189 86.1161 20.7667C86.1161 20.6616 86.2212 20.5564 86.3264 20.5564H88.6396C88.7448 20.5564 88.8499 20.6616 88.8499 20.7667V29.3888C88.8499 29.494 88.9551 29.5991 89.0602 29.5991H91.3735C91.4786 29.5991 91.5838 29.494 91.5838 29.3888V18.6112C91.6364 18.4535 91.5312 18.3483 91.4261 18.3483ZM103.991 18.3483H102.099C102.046 18.3483 101.941 18.4009 101.888 18.4534L97.4195 24.8149C97.3143 25.0252 96.9989 24.92 96.9989 24.6572V18.6112C96.9989 18.506 96.8937 18.4009 96.7886 18.4009H94.4753C94.3702 18.4009 94.2651 18.506 94.2651 18.6112V29.494C94.2651 29.5991 94.3702 29.7043 94.4753 29.7043H96.368C96.4206 29.7043 96.5257 29.6517 96.5783 29.5991L101.047 23.2377C101.152 23.0274 101.468 23.1325 101.468 23.3954V29.494C101.468 29.5991 101.573 29.7043 101.678 29.7043H103.991C104.096 29.7043 104.202 29.5991 104.202 29.494V18.6112C104.254 18.4535 104.149 18.3483 103.991 18.3483ZM67.5049 18.3483H57.8313C57.7262 18.3483 57.621 18.4534 57.621 18.5586V29.4414C57.621 29.5465 57.7262 29.6517 57.8313 29.6517H60.1446C60.2497 29.6517 60.3549 29.5465 60.3549 29.4414V20.9244C60.3549 20.8193 60.46 20.7141 60.5652 20.7141H64.6134C64.7185 20.7141 64.8237 20.8193 64.8237 20.9244V29.494C64.8237 29.5991 64.9288 29.7043 65.0339 29.7043H67.3472C67.4523 29.7043 67.5575 29.5991 67.5575 29.494V18.6112C67.7152 18.4535 67.6101 18.3483 67.5049 18.3483ZM158.931 22.3965C158.353 22.3965 157.722 22.4491 157.091 22.5016C156.933 22.5016 156.828 22.3965 156.828 22.2913V18.6112C156.828 18.506 156.723 18.4009 156.618 18.4009H154.304C154.199 18.4009 154.094 18.506 154.094 18.6112V29.494C154.094 29.5991 154.199 29.7043 154.304 29.7043H158.195C161.56 29.7043 162.874 28.6528 162.874 26.0241C162.821 23.7108 161.717 22.3965 158.931 22.3965ZM158.142 27.8642H157.038C156.933 27.8642 156.828 27.759 156.828 27.6539V24.6046C156.828 24.4995 156.933 24.3943 157.038 24.3943C157.406 24.3417 157.774 24.3417 158.142 24.3417C159.299 24.3417 159.982 24.7097 159.982 26.1292C159.982 27.5487 159.352 27.8642 158.142 27.8642ZM75.1281 18.1906C71.9211 18.1906 69.8182 19.7152 69.8182 22.7645V25.3932C69.8182 28.4425 71.8686 29.862 75.1281 29.862C78.3877 29.862 80.4381 28.4425 80.4381 25.3932V22.7645C80.4381 19.7152 78.3877 18.1906 75.1281 18.1906ZM77.5465 25.0778C77.5465 26.655 76.9156 27.759 75.1281 27.759C73.4458 27.759 72.7097 26.7076 72.7097 25.0778V22.9748C72.7097 21.4502 73.4458 20.2935 75.1281 20.2935C76.9156 20.2935 77.5465 21.4502 77.5465 22.9748V25.0778ZM119.29 18.3483H116.294C116.188 18.3483 116.083 18.4009 116.083 18.506L113.455 26.8653H113.402L110.773 18.506C110.721 18.4009 110.668 18.3483 110.563 18.3483H107.566C107.461 18.3483 107.356 18.4534 107.356 18.5586L106.462 29.4414C106.462 29.5991 106.567 29.7043 106.672 29.7043H109.038C109.143 29.7043 109.249 29.5991 109.249 29.494L109.459 21.6079H109.511L112.035 29.5465C112.088 29.6517 112.14 29.7043 112.245 29.7043H114.453C114.559 29.7043 114.664 29.6517 114.664 29.5465L117.187 21.6079H117.24L117.45 29.494C117.45 29.5991 117.555 29.7043 117.66 29.7043H120.026C120.184 29.7043 120.289 29.5991 120.237 29.4414L119.343 18.5586C119.553 18.4534 119.448 18.3483 119.29 18.3483ZM166.659 18.3483H164.346C164.241 18.3483 164.136 18.4534 164.136 18.5586V29.4414C164.136 29.5465 164.241 29.6517 164.346 29.6517H166.659C166.764 29.6517 166.87 29.5465 166.87 29.4414V18.6112C166.922 18.4535 166.817 18.3483 166.659 18.3483ZM148.469 22.7119H146.261C146.156 22.7119 146.05 22.6068 146.05 22.5016V20.7667C146.05 20.6616 146.156 20.5564 146.261 20.5564H150.677C150.782 20.5564 150.887 20.4513 150.887 20.3461V18.6637C150.887 18.5586 150.782 18.4534 150.677 18.4534H143.422C143.317 18.4534 143.211 18.5586 143.211 18.6637V29.5465C143.211 29.6517 143.317 29.7568 143.422 29.7568H148.364C150.992 29.7568 151.781 28.3899 151.781 26.2344C151.833 23.9211 150.94 22.7119 148.469 22.7119ZM147.68 27.8116H146.313C146.208 27.8116 146.103 27.7065 146.103 27.6013V24.92C146.103 24.8149 146.208 24.7097 146.313 24.7097H147.68C148.574 24.7097 149.152 25.1829 149.152 26.287C149.1 27.3384 148.574 27.8116 147.68 27.8116ZM177.227 18.3483H168.92C168.815 18.3483 168.71 18.4534 168.71 18.5586V20.3987C168.71 20.5038 168.815 20.609 168.92 20.609H171.444C171.549 20.609 171.654 20.7141 171.654 20.8193V29.4414C171.654 29.5465 171.759 29.6517 171.864 29.6517H174.177C174.283 29.6517 174.388 29.5465 174.388 29.4414V20.8719C174.388 20.7667 174.493 20.6616 174.598 20.6616H177.122C177.227 20.6616 177.332 20.5564 177.332 20.4513V18.6112C177.437 18.4535 177.332 18.3483 177.227 18.3483ZM130.015 18.3483H122.918C122.813 18.3483 122.708 18.4534 122.708 18.5586V29.4414C122.708 29.5465 122.813 29.6517 122.918 29.6517H130.015C130.12 29.6517 130.226 29.5465 130.226 29.4414V27.759C130.226 27.6539 130.12 27.5487 130.015 27.5487H125.704C125.599 27.5487 125.494 27.4436 125.494 27.3384V25.1829C125.494 25.0778 125.599 24.9726 125.704 24.9726H129.174C129.279 24.9726 129.384 24.8675 129.384 24.7623V23.1325C129.384 23.0274 129.279 22.9222 129.174 22.9222H125.704C125.599 22.9222 125.494 22.8171 125.494 22.7119V20.8193C125.494 20.7141 125.599 20.609 125.704 20.609H130.015C130.12 20.609 130.226 20.5038 130.226 20.3987V18.7163C130.278 18.4534 130.173 18.3483 130.015 18.3483ZM136.482 18.3483H132.591C132.486 18.3483 132.381 18.4534 132.381 18.5586V29.4414C132.381 29.5465 132.486 29.6517 132.591 29.6517H134.905C135.01 29.6517 135.115 29.5465 135.115 29.4414V26.655C135.115 26.5498 135.22 26.4447 135.325 26.4447H136.429C139.742 26.4447 141.108 25.3406 141.108 22.3439C141.161 19.3472 139.794 18.3483 136.482 18.3483ZM136.482 24.3417H135.378C135.273 24.3417 135.168 24.2366 135.168 24.1314V20.8193C135.168 20.7141 135.273 20.609 135.378 20.609H136.482C137.691 20.609 138.322 20.977 138.322 22.4491C138.322 24.0263 137.533 24.3417 136.482 24.3417ZM15.5619 29.7043L0.26287 20.977C0.157722 20.9244 0 20.977 0 21.1347V27.0756C0 27.2333 0.105148 27.391 0.26287 27.4962L9.93647 32.9639C10.4096 33.2267 10.6725 33.6999 10.6725 34.2256V45.2662C10.6725 46.3702 9.46331 47.0537 8.51698 46.5279L0.26287 41.8489C0.157722 41.7963 0 41.8489 0 42.0066V45.0033C0 46.6856 1.36692 48.0526 3.04929 48.0526H15.8773C16.0876 48.0526 16.2979 47.8423 16.2979 47.632V30.966C16.2979 30.4403 16.035 29.9671 15.5619 29.7043ZM46.0022 41.6911L36.6966 47.0537C35.7503 47.632 34.5411 46.8959 34.5411 45.7919V20.6616C34.5411 20.1358 34.2782 19.6627 33.805 19.3998L11.5663 6.88719C10.6199 6.36145 10.5674 4.94195 11.5663 4.36364C13.4589 3.25958 16.2453 1.68237 18.6637 0.315444C18.7689 0.26287 18.7163 0 18.5586 0H3.04929C1.36692 0 0 1.36692 0 3.04929V18.4009C0 18.5586 0.157722 18.6112 0.26287 18.5586L9.77875 13.2486C10.1993 12.9858 10.7251 12.9858 11.1982 13.2486L28.0745 22.6068C28.5476 22.8697 28.8105 23.3428 28.8105 23.8686V42.9003C28.8105 43.4261 28.5476 43.8992 28.1271 44.1621L22.1336 47.6846C21.9759 47.7897 22.0285 48.0526 22.2388 48.0526H43.2683C44.9507 48.0526 46.3176 46.6856 46.3176 45.0033V41.9014C46.2651 41.7437 46.1073 41.6386 46.0022 41.6911ZM43.058 0H27.8116C27.6013 0 27.5487 0.26287 27.7065 0.368018L45.9496 10.7251C46.0548 10.7777 46.2125 10.7251 46.2125 10.5674V3.20701C46.2651 1.4195 44.793 0 43.058 0Z" fill="white"/>
</svg>
