<svg width="122" height="134" viewBox="0 0 122 134" fill="none" xmlns="http://www.w3.org/2000/svg">
<g clip-path="url(#clip0)">
<path d="M0 133.38V122.283C0 122.141 0.141367 122.071 0.212051 122.071H10.0371C10.1784 122.071 10.2491 122.212 10.2491 122.283V133.38C10.2491 133.521 10.1078 133.592 10.0371 133.592H7.70452C7.56315 133.592 7.49247 133.451 7.49247 133.38V124.686C7.49247 124.545 7.3511 124.474 7.28042 124.474H3.11008C2.96871 124.474 2.89803 124.615 2.89803 124.686V133.38C2.89803 133.521 2.75666 133.592 2.68598 133.592H0.212051C0.141367 133.663 0 133.521 0 133.38Z" fill="#0BA14B"/>
<path d="M12.4403 126.524C12.4403 123.414 14.5608 121.859 17.8123 121.859C21.1344 121.859 23.1842 123.414 23.1842 126.524V129.21C23.1842 132.32 21.0637 133.804 17.8123 133.804C14.5608 133.804 12.4403 132.39 12.4403 129.21V126.524ZM15.409 128.927C15.409 130.553 16.1159 131.613 17.8829 131.613C19.65 131.613 20.3569 130.553 20.3569 128.927V126.806C20.3569 125.251 19.7207 124.12 17.8829 124.12C16.1865 124.12 15.409 125.251 15.409 126.806V128.927Z" fill="#0BA14B"/>
<path d="M34.635 122.283V133.38C34.635 133.521 34.4937 133.592 34.423 133.592H32.0904C31.9491 133.592 31.8784 133.451 31.8784 133.38V124.615C31.8784 124.474 31.737 124.403 31.6663 124.403H29.2631C29.1217 124.403 29.051 124.474 29.051 124.615C28.9097 129.846 28.2735 133.804 25.3755 133.804C25.0927 133.804 24.598 133.733 24.3152 133.663C24.2445 133.663 24.1739 133.592 24.1032 133.451L23.8204 131.684C23.8204 131.542 23.8911 131.401 24.0325 131.401C24.1739 131.401 24.3152 131.401 24.3859 131.401C26.0116 131.401 26.2944 127.867 26.2944 122.283C26.2944 122.141 26.4357 122.071 26.5064 122.071H34.423C34.5644 122.071 34.635 122.141 34.635 122.283Z" fill="#0BA14B"/>
<path d="M40.0776 122.283V128.503C40.0776 128.715 40.3603 128.856 40.5017 128.644L45.0254 122.141C45.0961 122.071 45.1668 122.071 45.2375 122.071H47.2166C47.358 122.071 47.4287 122.212 47.4287 122.283V133.38C47.4287 133.521 47.2873 133.592 47.2166 133.592H44.8841C44.7427 133.592 44.672 133.451 44.672 133.38V127.16C44.672 126.948 44.3893 126.806 44.2479 127.018L39.7242 133.521C39.6535 133.592 39.5828 133.592 39.5121 133.592H37.4623C37.3209 133.592 37.2502 133.451 37.2502 133.38V122.283C37.2502 122.141 37.3916 122.071 37.4623 122.071H39.7949C40.0069 122.071 40.0776 122.141 40.0776 122.283Z" fill="#0BA14B"/>
<path d="M52.8713 125.393L52.5886 133.451C52.5886 133.592 52.4472 133.663 52.3765 133.663H49.9733C49.8319 133.663 49.6905 133.521 49.7612 133.38L50.6801 122.283C50.6801 122.141 50.8215 122.071 50.8922 122.071H53.9316C54.0023 122.071 54.1436 122.141 54.1436 122.212L56.8296 130.765H56.9003L59.5863 122.212C59.5863 122.141 59.7276 122.071 59.7983 122.071H62.8377C62.9791 122.071 63.0498 122.141 63.0498 122.283L63.9686 133.38C63.9686 133.521 63.898 133.663 63.7566 133.663H61.3534C61.212 133.663 61.1413 133.592 61.1413 133.451L60.9292 125.393H60.7879L58.1726 133.521C58.1726 133.592 58.0312 133.663 57.9605 133.663H55.6987C55.628 133.663 55.4866 133.592 55.4866 133.521L52.8713 125.393Z" fill="#0BA14B"/>
<path d="M69.3407 131.472H73.723C73.8644 131.472 73.9351 131.613 73.9351 131.684V133.38C73.9351 133.521 73.7937 133.592 73.723 133.592H66.5133C66.3719 133.592 66.3013 133.451 66.3013 133.38V122.283C66.3013 122.141 66.4426 122.071 66.5133 122.071H73.723C73.8644 122.071 73.9351 122.212 73.9351 122.283V123.979C73.9351 124.12 73.7937 124.191 73.723 124.191H69.3407C69.1993 124.191 69.1286 124.332 69.1286 124.403V126.312C69.1286 126.453 69.27 126.524 69.3407 126.524H72.8748C73.0162 126.524 73.0869 126.665 73.0869 126.736V128.432C73.0869 128.574 72.9455 128.644 72.8748 128.644H69.3407C69.1993 128.644 69.1286 128.786 69.1286 128.856V131.047C69.0579 131.33 69.1993 131.472 69.3407 131.472Z" fill="#0BA14B"/>
<path d="M80.2967 122.071C83.6188 122.071 85.0325 123.131 85.0325 126.17C85.0325 129.21 83.6188 130.341 80.2967 130.341H79.1657C79.0244 130.341 78.9537 130.482 78.9537 130.553V133.38C78.9537 133.521 78.8123 133.592 78.7416 133.592H76.3384C76.197 133.592 76.1263 133.451 76.1263 133.38V122.283C76.1263 122.141 76.2677 122.071 76.3384 122.071H80.2967ZM78.9537 127.867C78.9537 128.008 79.0951 128.079 79.1657 128.079H80.2967C81.3569 128.079 82.1344 127.796 82.1344 126.029C82.1344 124.545 81.4983 124.191 80.2967 124.191H79.1657C79.0244 124.191 78.9537 124.332 78.9537 124.403V127.867Z" fill="#0BA14B"/>
<path d="M89.9803 126.241C89.9803 126.382 90.1217 126.453 90.1923 126.453H92.4542C94.9988 126.453 95.847 127.655 95.847 129.987C95.847 132.178 95.0695 133.592 92.3835 133.592H87.365C87.2236 133.592 87.153 133.451 87.153 133.38V122.283C87.153 122.141 87.2943 122.071 87.365 122.071H94.7161C94.8575 122.071 94.9281 122.212 94.9281 122.283V123.979C94.9281 124.12 94.7868 124.191 94.7161 124.191H90.1923C90.051 124.191 89.9803 124.332 89.9803 124.403V126.241ZM89.9803 128.715V131.472C89.9803 131.613 90.1217 131.684 90.1923 131.684H91.606C92.5249 131.684 93.0904 131.189 93.0904 130.058C93.0904 128.927 92.5249 128.432 91.606 128.432H90.1923C90.1217 128.432 89.9803 128.574 89.9803 128.715Z" fill="#0BA14B"/>
<path d="M102.35 133.663H98.3916C98.2503 133.663 98.1796 133.521 98.1796 133.451V122.283C98.1796 122.141 98.3209 122.071 98.3916 122.071H100.724C100.866 122.071 100.936 122.212 100.936 122.283V126.029C100.936 126.17 101.078 126.312 101.219 126.241C101.855 126.17 102.491 126.1 103.057 126.1C105.884 126.1 107.015 127.443 107.015 129.846C107.086 132.532 105.743 133.663 102.35 133.663ZM102.35 128.079C101.996 128.079 101.572 128.079 101.219 128.149C101.078 128.149 101.007 128.291 101.007 128.361V131.472C101.007 131.613 101.148 131.684 101.219 131.684H102.35C103.552 131.684 104.188 131.33 104.188 129.846C104.188 128.503 103.481 128.079 102.35 128.079ZM108.641 133.663H110.973C111.115 133.663 111.185 133.521 111.185 133.451V122.283C111.185 122.141 111.044 122.071 110.973 122.071H108.641C108.499 122.071 108.429 122.212 108.429 122.283V133.38C108.429 133.521 108.499 133.663 108.641 133.663Z" fill="#0BA14B"/>
<path d="M113.306 122.071H121.788C121.929 122.071 122 122.212 122 122.283V124.12C122 124.262 121.859 124.332 121.788 124.332H119.243C119.102 124.332 119.031 124.474 119.031 124.545V133.309C119.031 133.451 118.89 133.521 118.819 133.521H116.487C116.345 133.521 116.275 133.38 116.275 133.309V124.545C116.275 124.403 116.133 124.332 116.063 124.332H113.518C113.377 124.332 113.306 124.191 113.306 124.12V122.283C113.023 122.141 113.165 122.071 113.306 122.071Z" fill="#0BA14B"/>
<path d="M37.6743 12.9351C44.0359 9.25953 55.628 2.61527 59.657 0.353389C60.5758 -0.141397 61.6361 -0.141397 62.555 0.353389L110.125 27.3545C111.044 27.8493 111.609 28.8389 111.609 29.8992V83.9015C111.609 84.9617 111.044 85.8806 110.125 86.4461L88.3545 98.8864C86.4461 100.017 83.9721 98.6037 83.9721 96.3418V45.7323C83.9721 44.672 83.4067 43.6825 82.4878 43.1877L37.745 18.0243C35.7659 16.8934 35.7659 14.066 37.6743 12.9351Z" fill="#0BA14B"/>
<path d="M36.9676 30.8181L70.9664 49.6906C71.8853 50.1854 72.4508 51.175 72.4508 52.2352V90.5458C72.4508 91.606 71.8853 92.5249 71.0371 93.0197L51.5991 104.47C49.6906 105.601 47.2167 104.188 47.2167 101.997V66.4426C47.2167 65.3824 46.6512 64.4635 45.7324 63.898L14.985 46.4391C13.0058 45.3082 13.0058 42.4809 14.985 41.3499L34.1402 30.7474C34.9884 30.3233 36.0487 30.3233 36.9676 30.8181Z" fill="#0BA14B"/>
<path d="M10.4612 61.9189V84.1842C10.4612 85.2445 11.0267 86.1634 11.9455 86.7288L31.5249 97.8968C33.4334 99.0278 35.8366 97.6141 35.8366 95.3522V73.0869C35.8366 72.0266 35.2711 71.1077 34.3523 70.5423L14.7729 59.4449C12.8644 58.314 10.4612 59.7277 10.4612 61.9189Z" fill="#0BA14B"/>
</g>
<defs>
<clipPath id="clip0">
<rect width="122" height="133.804" fill="white"/>
</clipPath>
</defs>
</svg>
