<svg width="85" height="117" viewBox="0 0 85 117" fill="none" xmlns="http://www.w3.org/2000/svg">
<path d="M0.175598 115.594V95.1119C0.175598 94.7603 0.175598 94.4966 0.263408 94.3208C0.439028 94.0571 0.790267 93.9692 1.22932 93.9692H11.5031C12.0299 93.9692 12.2934 94.0571 12.469 94.2329C12.5568 94.4087 12.6446 94.6724 12.6446 95.1119V97.5732C12.6446 97.8369 12.5568 98.0127 12.3812 98.1007C12.2056 98.2765 11.9421 98.2765 11.5909 98.2765H5.44419C5.09295 98.2765 4.82952 98.4523 4.82952 98.8039V102.232C4.82952 102.584 4.91733 102.847 5.18076 102.847H10.2737C10.4494 102.847 10.625 102.935 10.8006 103.023C10.9762 103.111 10.9762 103.287 10.9762 103.463V106.452C10.9762 106.891 10.8006 107.067 10.3615 107.067H5.44419C5.18076 107.067 5.00514 107.243 5.00514 107.594V115.506C5.00514 116.033 4.91733 116.297 4.74171 116.473C4.56609 116.56 4.30266 116.648 3.86361 116.648H1.31713C0.965887 116.648 0.702458 116.648 0.526838 116.56C0.351218 116.385 0.175598 116.121 0.175598 115.594Z" fill="#30469C"/>
<path d="M14.6642 108.473V102.32C14.6642 100.122 14.9277 98.4523 15.5423 97.2216C16.5961 94.9361 18.7035 93.7054 21.7768 93.7054C24.6746 93.7054 26.6942 94.7603 27.7479 96.7821C28.4504 98.1006 28.8016 99.9466 28.8016 102.232V108.385C28.8016 110.495 28.5382 112.165 27.9235 113.396C26.8698 115.769 24.7624 116.912 21.689 116.912C19.3182 116.912 17.4742 116.209 16.3326 114.802C15.2789 113.484 14.6642 111.374 14.6642 108.473ZM24.0599 107.858V102.847C24.0599 101.177 23.9721 100.035 23.7965 99.4192C23.533 98.4523 22.8306 98.0127 21.7768 98.0127C20.7231 98.0127 20.1085 98.4523 19.7572 99.4192C19.5816 100.035 19.4938 101.177 19.4938 102.935V108.034C19.4938 109.704 19.5816 110.847 19.7572 111.462C20.0207 112.429 20.7231 112.868 21.7768 112.868C22.8306 112.868 23.4452 112.429 23.7965 111.462C23.9721 110.759 24.0599 109.616 24.0599 107.858Z" fill="#30469C"/>
<path d="M32.4018 93.9692H38.3729C41.095 93.9692 43.2024 94.6724 44.5196 96.0789C45.6611 97.2216 46.188 98.6281 46.188 100.298C46.188 101.881 45.8367 103.111 45.0465 104.166C44.4318 105.045 43.7293 105.572 42.8512 105.924C42.6756 105.924 42.5878 106.1 42.5878 106.188C42.5878 106.276 42.6756 106.452 42.7634 106.715L46.8026 115.506C46.8905 115.681 46.8905 115.857 46.8905 115.945C46.8905 116.385 46.627 116.648 46.1002 116.648H42.7634C42.3243 116.648 41.9731 116.56 41.7975 116.385C41.7097 116.297 41.6219 116.209 41.5341 116.033L37.6704 107.594C37.4948 107.331 37.3192 107.155 36.9679 107.155H36.3533C36.0898 107.155 36.002 107.243 36.002 107.506V115.594C36.002 116.121 35.9142 116.385 35.7386 116.56C35.563 116.648 35.2996 116.736 34.8605 116.736H32.314C31.9628 116.736 31.6993 116.736 31.5237 116.648C31.2603 116.473 31.1725 116.121 31.1725 115.681V95.1998C31.1725 94.8482 31.1725 94.5845 31.2603 94.4087C31.6115 94.145 31.875 93.9692 32.4018 93.9692ZM36.0898 98.716V102.672C36.0898 103.023 36.2655 103.199 36.5289 103.199H38.0217C38.8998 103.199 39.69 102.935 40.2169 102.496C40.7438 102.056 41.0072 101.441 41.0072 100.65C41.0072 99.9466 40.8316 99.4192 40.3925 98.9797C39.8657 98.4523 39.0754 98.1886 38.0217 98.1886H36.6167C36.2655 98.1886 36.0898 98.3644 36.0898 98.716Z" fill="#30469C"/>
<path d="M53.3884 103.639V115.594C53.3884 116.121 53.3006 116.385 53.125 116.56C52.9493 116.648 52.6859 116.736 52.2469 116.736H49.7004C49.3491 116.736 49.0857 116.736 48.9101 116.648C48.6466 116.473 48.5588 116.121 48.5588 115.681V95.1998C48.5588 94.8482 48.5588 94.5845 48.6466 94.4087C48.8223 94.145 49.1735 94.0571 49.6126 94.0571H52.6859C53.0371 94.0571 53.3006 94.145 53.564 94.4087C53.6518 94.4966 53.8274 94.6724 53.9152 94.8482L57.4276 101.881C57.4276 101.968 57.5154 102.144 57.6033 102.232C57.6911 102.32 57.7789 102.408 57.7789 102.408C57.8667 102.408 57.9545 102.32 58.0423 102.144C58.1301 101.968 58.1301 101.881 58.1301 101.881L61.6425 94.9361C61.8181 94.5845 61.9938 94.4087 62.1694 94.2329C62.345 94.145 62.6084 94.0571 62.8719 94.0571H65.594C66.1208 94.0571 66.3843 94.145 66.5599 94.3208C66.6477 94.4966 66.7355 94.7603 66.7355 95.1998V115.681C66.7355 116.209 66.6477 116.473 66.4721 116.648C66.2964 116.736 66.033 116.824 65.594 116.824H63.0475C62.5206 116.824 62.2572 116.736 62.0816 116.56C61.9938 116.385 61.9059 116.121 61.9059 115.681V104.166C61.9059 104.078 61.8181 103.99 61.8181 103.99L61.7303 104.078L59.1838 110.143C59.096 110.495 58.9204 110.759 58.8326 110.847C58.7448 110.935 58.5692 111.023 58.3057 111.023H57.0764C56.7252 111.023 56.3739 110.759 56.1983 110.143L53.564 103.814C53.564 103.639 53.4762 103.639 53.3884 103.639Z" fill="#30469C"/>
<path d="M74.2872 93.9692H78.4142C78.6777 93.9692 78.9411 94.0571 79.1167 94.145C79.2923 94.2329 79.3801 94.4966 79.5558 94.8482L84.8244 115.681C84.8244 115.769 84.9122 115.945 84.9122 116.121C84.9122 116.473 84.6487 116.648 84.2097 116.648H81.0485C80.6973 116.648 80.5217 116.56 80.3461 116.385C80.1704 116.209 80.0826 116.033 79.9948 115.769L79.3801 113.308C79.2923 112.956 79.1167 112.781 78.7655 112.781H74.2872C73.9359 112.781 73.6725 112.956 73.6725 113.308L73.0578 115.857C73.0578 116.033 72.8822 116.297 72.7944 116.385C72.6188 116.56 72.4432 116.648 72.0919 116.648H68.9308C68.4917 116.648 68.3161 116.473 68.3161 116.033C68.3161 115.945 68.3161 115.945 68.3161 115.857C68.3161 115.769 68.4039 115.681 68.4039 115.681L73.4091 94.8482C73.4969 94.4966 73.5847 94.2329 73.7603 94.145C73.7603 94.0571 74.0237 93.9692 74.2872 93.9692ZM74.9897 108.473H77.7118C77.9752 108.473 78.063 108.297 77.9752 107.946L76.5702 102.232C76.5702 102.144 76.4824 102.056 76.4824 102.056C76.3946 101.968 76.3946 101.968 76.3946 101.968C76.3068 102.056 76.219 102.232 76.1312 102.32L74.9018 108.034C74.7262 108.385 74.814 108.473 74.9897 108.473Z" fill="#30469C"/>
<path d="M10.9762 21.976C17.0382 21.976 21.9525 17.0565 21.9525 10.988C21.9525 4.91949 17.0382 0 10.9762 0C4.91423 0 0 4.91949 0 10.988C0 17.0565 4.91423 21.976 10.9762 21.976Z" fill="#30469C"/>
<path d="M42.5 21.976C48.562 21.976 53.4762 17.0565 53.4762 10.988C53.4762 4.91949 48.562 0 42.5 0C36.438 0 31.5237 4.91949 31.5237 10.988C31.5237 17.0565 36.438 21.976 42.5 21.976Z" fill="#30469C"/>
<path d="M74.0238 21.976C80.0858 21.976 85 17.0565 85 10.988C85 4.91949 80.0858 0 74.0238 0C67.9618 0 63.0475 4.91949 63.0475 10.988C63.0475 17.0565 67.9618 21.976 74.0238 21.976Z" fill="#30469C"/>
<path d="M10.9762 53.4455C17.0382 53.4455 21.9525 48.526 21.9525 42.4575C21.9525 36.389 17.0382 31.4695 10.9762 31.4695C4.91423 31.4695 0 36.389 0 42.4575C0 48.526 4.91423 53.4455 10.9762 53.4455Z" fill="#30469C"/>
<path d="M42.5 53.4455C48.562 53.4455 53.4762 48.526 53.4762 42.4575C53.4762 36.389 48.562 31.4695 42.5 31.4695C36.438 31.4695 31.5237 36.389 31.5237 42.4575C31.5237 48.526 36.438 53.4455 42.5 53.4455Z" fill="#30469C"/>
<path d="M10.9762 85.003C17.0382 85.003 21.9525 80.0835 21.9525 74.015C21.9525 67.9465 17.0382 63.027 10.9762 63.027C4.91423 63.027 0 67.9465 0 74.015C0 80.0835 4.91423 85.003 10.9762 85.003Z" fill="#30469C"/>
<path d="M74.0237 53.4455C80.0857 53.4455 85 48.526 85 42.4575C85 36.389 80.0857 31.4695 74.0237 31.4695C67.9617 31.4695 63.0475 36.389 63.0475 42.4575C63.0475 48.526 67.9617 53.4455 74.0237 53.4455Z" fill="#9ACA3E"/>
<path d="M42.5 85.003C48.562 85.003 53.4762 80.0835 53.4762 74.015C53.4762 67.9465 48.562 63.027 42.5 63.027C36.438 63.027 31.5237 67.9465 31.5237 74.015C31.5237 80.0835 36.438 85.003 42.5 85.003Z" fill="#9ACA3E"/>
<path d="M74.0237 85.003C80.0857 85.003 85 80.0835 85 74.015C85 67.9465 80.0857 63.027 74.0237 63.027C67.9617 63.027 63.0475 67.9465 63.0475 74.015C63.0475 80.0835 67.9617 85.003 74.0237 85.003Z" fill="#9ACA3E"/>
</svg>
